<svg xmlns="http://www.w3.org/2000/svg" xmlns:xlink="http://www.w3.org/1999/xlink" viewBox="0 0 464.09 218.2"><defs><style>.cls-1{isolation:isolate;}.cls-2{fill:#d1d3d4;}.cls-14,.cls-15,.cls-16,.cls-2{mix-blend-mode:multiply;}.cls-3{fill:#e6e7e8;}.cls-4{fill:#fff;}.cls-5{fill:#9ac43e;}.cls-6{fill:#a8a191;}.cls-11,.cls-12,.cls-13,.cls-20,.cls-7{fill:none;stroke:#fff;stroke-miterlimit:10;}.cls-7{stroke-width:4px;}.cls-8{fill:#cdc7bb;}.cls-9{fill:#27aae1;}.cls-10{fill:#8baa37;}.cls-11{stroke-width:3px;}.cls-12{stroke-width:6px;}.cls-13{stroke-width:2px;}.cls-14{fill:url(#linear-gradient);}.cls-15{fill:url(#linear-gradient-2);}.cls-16{fill:#bcbec0;}.cls-17{fill:#ea3d15;}.cls-18{fill:#10b2dd;}.cls-19{fill:#2e9abf;}</style><linearGradient id="linear-gradient" x1="120.03" y1="109.1" x2="232.04" y2="109.1" gradientUnits="userSpaceOnUse"><stop offset="0" stop-color="#b0b0b0"/><stop offset="1" stop-color="#f7f7f7"/></linearGradient><linearGradient id="linear-gradient-2" x1="311.96" y1="127.15" x2="412.29" y2="100.27" xlink:href="#linear-gradient"/></defs><title>115946-OPFSSF-743</title><g class="cls-1"><g id="OBJECTS"><path id="_Path_" data-name="&lt;Path&gt;" class="cls-2" d="M29.92,235s109.58-13.22,210.83,0V191.3H56Z" transform="translate(-17.96 -19.51)"/><path id="_Path_2" data-name="&lt;Path&gt;" class="cls-2" d="M471.57,235S362,221.76,260.74,235V191.3H445.48Z" transform="translate(-17.96 -19.51)"/><g id="_Group_" data-name="&lt;Group&gt;"><polygon id="_Path_3" data-name="&lt;Path&gt;" class="cls-3" points="0 218.2 120.03 190.9 148.61 0 65.24 28 0 218.2"/><polygon id="_Path_4" data-name="&lt;Path&gt;" class="cls-3" points="120.03 190.9 232.04 218.2 222.79 27.69 148.61 0 120.03 190.9"/><polygon id="_Path_5" data-name="&lt;Path&gt;" class="cls-3" points="232.04 218.2 341.38 190.9 294.61 0 222.79 27.69 232.04 218.2"/><polygon id="_Path_6" data-name="&lt;Path&gt;" class="cls-3" points="341.38 190.9 464.09 218.2 380.08 27.69 294.61 0 341.38 190.9"/><g id="_Group_2" data-name="&lt;Group&gt;"><polygon id="_Path_7" data-name="&lt;Path&gt;" class="cls-4" points="223.02 32.42 295.82 4.96 340.08 185.61 231.81 213.45 223.02 32.42"/><polygon id="_Path_8" data-name="&lt;Path&gt;" class="cls-4" points="340.08 185.61 295.82 4.96 376.74 31.39 456.3 211.8 340.08 185.61"/><polygon id="_Path_9" data-name="&lt;Path&gt;" class="cls-4" points="120.74 186.18 147.84 5.16 223.02 32.42 231.81 213.45 120.74 186.18"/><polygon id="_Path_10" data-name="&lt;Path&gt;" class="cls-4" points="68.81 31.6 147.84 5.16 120.74 186.18 6.95 211.95 68.81 31.6"/><polygon id="_Path_11" data-name="&lt;Path&gt;" class="cls-5" points="11.96 206.37 32.89 142.22 122.26 123.11 112.75 183.62 11.96 206.37"/><polygon id="_Path_12" data-name="&lt;Path&gt;" class="cls-6" points="35.47 137.97 47.75 100.21 84.24 87.93 74.3 128.57 35.47 137.97"/><polyline id="_Path_13" data-name="&lt;Path&gt;" class="cls-7" points="58.08 134.32 60.17 128.8 78.75 123.11"/><polygon id="_Path_14" data-name="&lt;Path&gt;" class="cls-8" points="78.75 128.72 87.78 87.93 128.58 76.1 122.26 118.26 78.75 128.72"/><path id="_Path_15" data-name="&lt;Path&gt;" class="cls-9" d="M270.94,40.63c-3.41,5.36-7,14-8.77,27.84-1.75,13.45-9.44,23.12-19,27.77-12.48,6.05-28.2,3.63-38.29-10C187,62.05,177.58,50.05,162,47.2s-25.83,5.11-29.93,2.15,2-12.45,6.57-15.67L98.78,47.07s-8.25,21.17,6.6,30.26,40.29-9.34,53.45-6.12,27.82,37.74,58.76,44.33A45,45,0,0,0,244,113.61c17.43-7,29.13-25.36,29-48.55-.06-13.39,3.46-22.27,7.72-28.12Z" transform="translate(-17.96 -19.51)"/><polygon id="_Path_16" data-name="&lt;Path&gt;" class="cls-10" points="50.48 96.27 72.62 88.99 80.81 56.99 61.09 61.54 50.48 96.27"/><polygon id="_Path_17" data-name="&lt;Path&gt;" class="cls-4" points="77.91 69 73.68 70.49 71.61 78.13 75.87 76.97 77.91 69"/><polygon id="_Path_18" data-name="&lt;Path&gt;" class="cls-4" points="75.46 79.35 71.24 80.84 69.17 88.48 73.42 87.32 75.46 79.35"/><polygon id="_Path_19" data-name="&lt;Path&gt;" class="cls-6" points="235.57 207.96 274.01 197.95 269.63 151.71 232.81 160.7 235.57 207.96"/><polygon id="_Path_20" data-name="&lt;Path&gt;" class="cls-8" points="278.56 196.59 334.29 182.25 313.74 94.75 267.59 108.38 278.56 196.59"/><polygon id="_Path_21" data-name="&lt;Path&gt;" class="cls-5" points="269.16 149.35 264.91 109.21 230.35 117.44 232.81 156.47 269.16 149.35"/><path id="_Path_22" data-name="&lt;Path&gt;" class="cls-6" d="M138.66,79.36c-7.7,2.49-15.66,5.07-23.2,5.07h0A23.47,23.47,0,0,1,103,81.22c-.42-.26-.83-.53-1.22-.8l-5.91,27,56.28-16.83,2.5-15.19C150.32,75.6,144.65,77.42,138.66,79.36Z" transform="translate(-17.96 -19.51)"/><polygon id="_Path_23" data-name="&lt;Path&gt;" class="cls-8" points="296.42 7.39 337.7 21.05 350.75 56.99 306.61 49 296.42 7.39"/><polygon id="_Path_24" data-name="&lt;Path&gt;" class="cls-6" points="341.38 22.57 358.63 66.55 391.99 73.56 374.71 32.19 341.38 22.57"/><polygon id="_Path_25" data-name="&lt;Path&gt;" class="cls-8" points="311.55 53.44 350.75 60.12 360.23 86.37 319.2 82.32 311.55 53.44"/><polyline id="_Path_26" data-name="&lt;Path&gt;" class="cls-11" points="365.45 68.82 358.48 53.44 350.75 50.62"/><polygon id="_Path_27" data-name="&lt;Path&gt;" class="cls-10" points="128.58 183.62 189.39 199.09 193.94 117.65 172.56 108.38 138.97 112.66 128.58 183.62"/><path id="_Path_28" data-name="&lt;Path&gt;" class="cls-10" d="M172.41,88.81c-2.84-3.19-5.6-6.29-8.12-8.69l-4,30.21,51.64,22.14.49-13.56C194.37,113.47,181.78,99.34,172.41,88.81Z" transform="translate(-17.96 -19.51)"/><polygon id="_Path_29" data-name="&lt;Path&gt;" class="cls-8" points="140.71 106.96 165.05 105.6 142.3 98.09 140.71 106.96"/><polygon id="_Path_30" data-name="&lt;Path&gt;" class="cls-5" points="340.08 109.31 360.23 171.49 442.34 192.42 415.65 128.72 340.08 109.31"/><ellipse id="_Path_31" data-name="&lt;Path&gt;" class="cls-12" cx="402.05" cy="166.25" rx="11.9" ry="17.29" transform="translate(110.47 485) rotate(-73.49)"/><ellipse id="_Path_32" data-name="&lt;Path&gt;" class="cls-9" cx="402.05" cy="166.25" rx="6.94" ry="11.47" transform="translate(110.46 484.99) rotate(-73.49)"/><g id="_Group_3" data-name="&lt;Group&gt;"><polygon id="_Path_33" data-name="&lt;Path&gt;" class="cls-4" points="78.87 131.79 71 164.19 66.33 159.32 125.14 147.66 126.32 147.42 127.31 147.83 205.24 179.86 204.86 179.79 230.89 176.89 228.97 177.38 324.22 125.21 325.69 124.4 327.3 124.89 370.51 137.94 368.19 145.59 324.99 132.54 328.06 132.22 232.82 184.4 231.75 184.99 230.89 184.89 204.86 181.99 204.59 181.96 204.47 181.92 124.53 155.33 126.7 155.5 67.89 167.17 61.74 168.39 63.22 162.3 71.09 129.9 78.87 131.79"/></g><line id="_Path_34" data-name="&lt;Path&gt;" class="cls-12" x1="400.94" y1="148.06" x2="428.69" y2="154.15"/><path id="_Path_35" data-name="&lt;Path&gt;" class="cls-12" d="M403.41,154.34S399.79,136,424.81,122.6" transform="translate(-17.96 -19.51)"/><path id="_Path_36" data-name="&lt;Path&gt;" class="cls-5" d="M277.55,65A66.89,66.89,0,0,1,275,83.92l49.58-15.42L314.38,26.9l-28.5,10.8C281.43,42.8,277.49,51.22,277.55,65Z" transform="translate(-17.96 -19.51)"/><polyline id="_Path_37" data-name="&lt;Path&gt;" class="cls-11" points="344.22 36.07 301.62 28.63 257.99 45.6"/><path id="_Path_38" data-name="&lt;Path&gt;" class="cls-11" d="M300.87,55.41s-6-8.9-22.86-6.8" transform="translate(-17.96 -19.51)"/><line id="_Path_39" data-name="&lt;Path&gt;" class="cls-13" x1="270.35" y1="40.79" x2="265.21" y2="74.58"/><polyline id="_Path_40" data-name="&lt;Path&gt;" class="cls-13" points="17.65 184.99 74.3 173.16 93.33 158.04"/><path id="_Path_41" data-name="&lt;Path&gt;" class="cls-13" d="M90.42,160.71s17.31-1.41,20.87-14.45" transform="translate(-17.96 -19.51)"/><line id="_Path_42" data-name="&lt;Path&gt;" class="cls-13" x1="385.27" y1="159.05" x2="393.66" y2="184.53"/><polyline id="_Path_43" data-name="&lt;Path&gt;" class="cls-13" points="390.11 173.73 412.16 180.13 416.71 190.6"/><g id="_Group_4" data-name="&lt;Group&gt;"><g id="_Group_5" data-name="&lt;Group&gt;"><path id="_Path_44" data-name="&lt;Path&gt;" class="cls-8" d="M135.41,45.4c1.1-.16,2.61-.56,4.19-1A59,59,0,0,1,155.06,42a43.17,43.17,0,0,1,5.76.39l2.7-14.74L143,34.4A28.83,28.83,0,0,0,135.41,45.4Z" transform="translate(-17.96 -19.51)"/><path id="_Path_45" data-name="&lt;Path&gt;" class="cls-8" d="M92.94,50.77l-4.49,1.47L81,77.72l15.05-3.13C91.2,67.24,91.38,57.79,92.94,50.77Z" transform="translate(-17.96 -19.51)"/></g></g><polygon id="_Path_46" data-name="&lt;Path&gt;" class="cls-8" points="319.81 85.35 323.58 102.19 413.98 124.93 400.33 94.75 319.81 85.35"/><polygon id="_Path_47" data-name="&lt;Path&gt;" class="cls-8" points="359.09 68.82 364.09 87.28 398.67 91.83 391.99 75.68 359.09 68.82"/><polygon id="_Path_48" data-name="&lt;Path&gt;" class="cls-8" points="267.59 105.14 312.53 91.83 303.58 53.44 257.99 67.15 267.59 105.14"/><polygon id="_Path_49" data-name="&lt;Path&gt;" class="cls-4" points="286.57 194.53 271.19 89.87 230.35 59.19 228.58 30.32 231.81 29.11 234.55 56.73 275.07 86.87 297.96 191.6 286.57 194.53"/><path id="_Path_50" data-name="&lt;Path&gt;" class="cls-6" d="M261.5,107.31a47.07,47.07,0,0,1-14.31,9.84l1.13,16.71,34-8.3-8.39-38.3A53.5,53.5,0,0,1,261.5,107.31Z" transform="translate(-17.96 -19.51)"/><path id="_Path_51" data-name="&lt;Path&gt;" class="cls-6" d="M257.66,67.88a86.58,86.58,0,0,1,5.54-22.11L241,54.13l1.87,37.07C250.17,87,256.19,79.16,257.66,67.88Z" transform="translate(-17.96 -19.51)"/><path id="_Path_52" data-name="&lt;Path&gt;" class="cls-6" d="M208.5,83.5c5.39,7.29,12.92,11.31,21.19,11.31h0a25.89,25.89,0,0,0,8.91-1.63l-1.38-39.74L171.56,29.34l-1.73,15.34C183,49.7,192.49,61.83,208.5,83.5Z" transform="translate(-17.96 -19.51)"/><polygon id="_Path_53" data-name="&lt;Path&gt;" class="cls-6" points="325.99 107.3 338.39 109.31 342.02 121.29 337.02 126.07 337.48 128.72 331.33 127.43 325.99 107.3"/><polygon id="_Path_54" data-name="&lt;Path&gt;" class="cls-6" points="342.44 123.41 339.07 126.64 339.52 128.72 344.53 130.39 342.44 123.41"/><polygon id="_Path_55" data-name="&lt;Path&gt;" class="cls-6" points="331.94 132.84 345.74 136.31 361.51 186.05 344.53 182.17 331.94 132.84"/><polygon id="_Path_56" data-name="&lt;Path&gt;" class="cls-6" points="361.51 175.13 365.15 186.05 447.8 205.91 443.1 195.6 361.51 175.13"/><polygon id="_Path_57" data-name="&lt;Path&gt;" class="cls-4" points="403.41 184.53 406.86 198.06 409.36 198.97 405.72 184.53 403.41 184.53"/><polygon id="_Path_58" data-name="&lt;Path&gt;" class="cls-8" points="192.57 200.15 227.6 207.96 226.39 148.44 195.91 141.2 192.57 200.15"/><path id="_Path_59" data-name="&lt;Path&gt;" class="cls-8" d="M227.88,121.21A54.09,54.09,0,0,1,216.63,120l-1.44-.34-1,36.15,29.57,7.73-2.2-44.31A48,48,0,0,1,227.88,121.21Z" transform="translate(-17.96 -19.51)"/><polygon id="_Path_60" data-name="&lt;Path&gt;" class="cls-14" points="120.03 190.9 232.04 218.2 222.79 27.69 148.61 0 120.03 190.9"/><polygon id="_Path_61" data-name="&lt;Path&gt;" class="cls-15" points="341.38 190.9 464.09 218.2 380.08 27.69 294.61 0 341.38 190.9"/></g></g><path id="_Path_62" data-name="&lt;Path&gt;" class="cls-16" d="M226.75,175.76c-2.54-1.05-4.93-1.08-5.44.13s2.67,6.53,2.67,6.53,6-1.5,6.51-2.71S229.29,176.81,226.75,175.76Z" transform="translate(-17.96 -19.51)"/><g id="_Group_6" data-name="&lt;Group&gt;"><path id="_Path_63" data-name="&lt;Path&gt;" class="cls-17" d="M224,166.21a4.84,4.84,0,0,0-5,5c0,3,5,11.24,5,11.24s5-8.29,5-11.24A4.84,4.84,0,0,0,224,166.21Z" transform="translate(-17.96 -19.51)"/><circle id="_Path_64" data-name="&lt;Path&gt;" class="cls-4" cx="206.03" cy="151.67" r="3"/></g><path id="_Path_65" data-name="&lt;Path&gt;" class="cls-16" d="M69.36,157.7c-3.7,1.12-6.23,3.62-5.52,6a26.18,26.18,0,0,0,2.59,5.26s11.53-7,10.83-9.32S73.07,156.58,69.36,157.7Z" transform="translate(-17.96 -19.51)"/><path id="_Path_66" data-name="&lt;Path&gt;" class="cls-16" d="M316.61,130.9c-2.82.86-4.74,2.76-4.2,4.54a20,20,0,0,0,2,4s8.79-5.32,8.25-7.1S319.43,130,316.61,130.9Z" transform="translate(-17.96 -19.51)"/><path id="_Path_67" data-name="&lt;Path&gt;" class="cls-16" d="M351.24,34.63c-2.43-1.66-5.12-2-6.17-.43s1.26,7.88,1.26,7.88,6.51-.32,7.56-1.85S353.67,36.3,351.24,34.63Z" transform="translate(-17.96 -19.51)"/><g id="_Group_7" data-name="&lt;Group&gt;"><path id="_Path_68" data-name="&lt;Path&gt;" class="cls-17" d="M66.44,146.05a6.83,6.83,0,0,0-7,7c0,4.17,7,15.86,7,15.86s7-11.69,7-15.86A6.83,6.83,0,0,0,66.44,146.05Z" transform="translate(-17.96 -19.51)"/><circle id="_Path_69" data-name="&lt;Path&gt;" class="cls-4" cx="48.48" cy="133.55" r="4.23"/></g><path id="_Path_70" data-name="&lt;Path&gt;" class="cls-16" d="M346,84.23c.27-2.36,5.25-3.74,11.12-3.08s10.42,3.12,10.15,5.48S359.4,90.69,353.52,90,345.72,86.59,346,84.23Z" transform="translate(-17.96 -19.51)"/><path id="_Path_71" data-name="&lt;Path&gt;" class="cls-16" d="M386.2,137.12c.27-2.36,5.25-3.74,11.12-3.08s10.42,3.12,10.15,5.48-7.87,4.05-13.75,3.39S385.93,139.48,386.2,137.12Z" transform="translate(-17.96 -19.51)"/><path id="_Path_72" data-name="&lt;Path&gt;" class="cls-16" d="M155.93,142.49c.27-2.36,5.25-3.74,11.12-3.08s10.42,3.12,10.15,5.49-7.87,4.05-13.75,3.39S155.66,144.85,155.93,142.49Z" transform="translate(-17.96 -19.51)"/><path id="_Path_73" data-name="&lt;Path&gt;" class="cls-16" d="M103.43,82.71c.27-2.36,5.25-3.74,11.12-3.08s10.42,3.12,10.15,5.48-7.87,4.05-13.75,3.39S103.16,85.07,103.43,82.71Z" transform="translate(-17.96 -19.51)"/><path id="_Path_74" data-name="&lt;Path&gt;" class="cls-16" d="M264.79,146.52c-.45-2.34,3.9-5.13,9.71-6.24s10.88-.11,11.33,2.22-9.21,8.66-15.08,8S265.24,148.86,264.79,146.52Z" transform="translate(-17.96 -19.51)"/><path id="_Path_75" data-name="&lt;Path&gt;" class="cls-16" d="M294.09,37.53c-.45-2.34,3.9-5.13,9.71-6.24s10.88-.11,11.33,2.22-9.21,8.66-15.08,8S294.54,39.87,294.09,37.53Z" transform="translate(-17.96 -19.51)"/><g id="_Group_8" data-name="&lt;Group&gt;"><circle id="_Path_76" data-name="&lt;Path&gt;" class="cls-18" cx="145.56" cy="118.01" r="10.71"/><path id="_Compound_Path_" data-name="&lt;Compound Path&gt;" class="cls-4" d="M169.5,137l-2.43-2.08v-1.52H166V134l-2.46-2.1-6,5.11h1.69v6.2h1.54v-3.57h1.41v3.57h5.62V137Zm-3.2,2.64h-2.51v-1.74h2.51Z" transform="translate(-17.96 -19.51)"/></g><g id="_Group_9" data-name="&lt;Group&gt;"><circle id="_Path_77" data-name="&lt;Path&gt;" class="cls-18" cx="252.57" cy="120.1" r="10.71"/><g id="_Group_10" data-name="&lt;Group&gt;"><path id="_Compound_Path_2" data-name="&lt;Compound Path&gt;" class="cls-4" d="M274.14,138.39c0,2-1.25,3.15-3.42,3.15H269.4v2.27h-2.49v-8.41h3.81C272.89,135.41,274.14,136.49,274.14,138.39Zm-2.36.07a1.05,1.05,0,0,0-1.18-1.14h-1.2v2.3h1.2A1.06,1.06,0,0,0,271.78,138.46Z" transform="translate(-17.96 -19.51)"/></g></g><g id="_Group_11" data-name="&lt;Group&gt;"><circle id="_Path_78" data-name="&lt;Path&gt;" class="cls-18" cx="282.08" cy="11.33" r="10.71"/><path id="_Compound_Path_3" data-name="&lt;Compound Path&gt;" class="cls-4" d="M306,30.29l-2.43-2.08V26.69H302.5v.59L300,25.18l-6,5.11h1.69v6.2h1.54V32.93h1.41v3.57h5.62v-6.2Zm-3.2,2.64h-2.51V31.19h2.51Z" transform="translate(-17.96 -19.51)"/></g><g id="_Group_12" data-name="&lt;Group&gt;"><circle id="_Path_79" data-name="&lt;Path&gt;" class="cls-18" cx="335.89" cy="59.96" r="10.71"/><path id="_Compound_Path_4" data-name="&lt;Compound Path&gt;" class="cls-4" d="M359.82,78.92l-2.43-2.08V75.32H356.3v.59l-2.46-2.1-6,5.11h1.69v6.2h1.54V81.56h1.41v3.57h5.62v-6.2Zm-3.2,2.64h-2.51V79.82h2.51Z" transform="translate(-17.96 -19.51)"/></g><g id="_Group_13" data-name="&lt;Group&gt;"><path id="_Path_80" data-name="&lt;Path&gt;" class="cls-17" d="M314.38,123.22a4.84,4.84,0,0,0-5,5c0,3,5,11.24,5,11.24s5-8.29,5-11.24A4.84,4.84,0,0,0,314.38,123.22Z" transform="translate(-17.96 -19.51)"/><circle id="_Path_81" data-name="&lt;Path&gt;" class="cls-4" cx="296.42" cy="108.68" r="3"/></g><g id="_Group_14" data-name="&lt;Group&gt;"><path id="_Path_82" data-name="&lt;Path&gt;" class="cls-17" d="M346.3,25.86a4.84,4.84,0,0,0-5,5c0,3,5,11.24,5,11.24s5-8.29,5-11.24A4.84,4.84,0,0,0,346.3,25.86Z" transform="translate(-17.96 -19.51)"/><circle id="_Path_83" data-name="&lt;Path&gt;" class="cls-4" cx="328.35" cy="11.33" r="3"/></g><g id="_Group_15" data-name="&lt;Group&gt;"><circle id="_Path_84" data-name="&lt;Path&gt;" class="cls-19" cx="376.91" cy="112.95" r="10.71"/><g id="_Group_16" data-name="&lt;Group&gt;"><path id="_Path_85" data-name="&lt;Path&gt;" class="cls-20" d="M389.08,133.21c1.44,0,1.44,2,2.89,2s1.45-2,2.89-2,1.45,2,2.9,2,1.45-2,2.9-2" transform="translate(-17.96 -19.51)"/><path id="_Path_86" data-name="&lt;Path&gt;" class="cls-20" d="M389.08,129.71c1.44,0,1.44,2,2.89,2s1.45-2,2.89-2,1.45,2,2.9,2,1.45-2,2.9-2" transform="translate(-17.96 -19.51)"/></g></g><g id="_Group_17" data-name="&lt;Group&gt;"><circle id="_Path_87" data-name="&lt;Path&gt;" class="cls-19" cx="93.33" cy="58.21" r="10.71"/><g id="_Group_18" data-name="&lt;Group&gt;"><path id="_Path_88" data-name="&lt;Path&gt;" class="cls-20" d="M105.5,78.47c1.44,0,1.44,2,2.89,2s1.45-2,2.89-2,1.45,2,2.9,2,1.45-2,2.9-2" transform="translate(-17.96 -19.51)"/><path id="_Path_89" data-name="&lt;Path&gt;" class="cls-20" d="M105.5,75c1.44,0,1.44,2,2.89,2s1.45-2,2.89-2,1.45,2,2.9,2,1.45-2,2.9-2" transform="translate(-17.96 -19.51)"/></g></g><g id="_Group_19" data-name="&lt;Group&gt;"><polygon id="_Path_90" data-name="&lt;Path&gt;" class="cls-16" points="196.2 38.77 191.59 37.89 193.94 41.17 200.81 37.89 196.2 38.77"/><polygon id="_Path_91" data-name="&lt;Path&gt;" class="cls-4" points="193.94 34.81 189.33 33.05 193.94 41.17 198.55 33.05 193.94 34.81"/></g><g id="_Group_20" data-name="&lt;Group&gt;"><polygon id="_Path_92" data-name="&lt;Path&gt;" class="cls-16" points="350.45 155.39 345.84 154.51 348.2 157.8 355.06 154.51 350.45 155.39"/><polygon id="_Path_93" data-name="&lt;Path&gt;" class="cls-4" points="348.2 151.44 343.58 149.67 348.2 157.8 352.81 149.67 348.2 151.44"/></g><g id="_Group_21" data-name="&lt;Group&gt;"><polygon id="_Path_94" data-name="&lt;Path&gt;" class="cls-16" points="372.25 49.16 367.64 48.28 370 51.56 376.86 48.28 372.25 49.16"/><polygon id="_Path_95" data-name="&lt;Path&gt;" class="cls-4" points="370 45.2 365.39 43.44 370 51.56 374.61 43.44 370 45.2"/></g><g id="_Group_22" data-name="&lt;Group&gt;"><polygon id="_Path_96" data-name="&lt;Path&gt;" class="cls-16" points="94.46 104.75 89.85 103.87 92.2 107.16 99.07 103.87 94.46 104.75"/><polygon id="_Path_97" data-name="&lt;Path&gt;" class="cls-4" points="92.2 100.8 87.59 99.03 92.2 107.16 96.81 99.03 92.2 100.8"/></g><g id="_Group_23" data-name="&lt;Group&gt;"><polygon id="_Path_98" data-name="&lt;Path&gt;" class="cls-16" points="177.41 30.28 172.79 29.4 175.15 32.69 182.02 29.4 177.41 30.28"/><polygon id="_Path_99" data-name="&lt;Path&gt;" class="cls-4" points="175.15 26.32 170.54 24.56 175.15 32.69 179.76 24.56 175.15 26.32"/></g></g></g></svg>