<svg xmlns="http://www.w3.org/2000/svg" viewBox="0 0 396.51 212.47"><defs><style>.cls-1,.cls-29,.cls-32,.cls-37,.cls-42{isolation:isolate;}.cls-2{fill:#706f6f;}.cls-3{fill:#dadada;}.cls-32,.cls-4{fill:#fff;}.cls-5{fill:#846450;}.cls-6{fill:#ededed;}.cls-7{fill:#95c11f;}.cls-8{fill:#bb8d70;}.cls-9{fill:#c6c6c6;}.cls-10{fill:#cc4141;}.cls-11{fill:#ffc012;}.cls-12{fill:#e95454;}.cls-13{fill:#e0b69b;}.cls-14{fill:#ad3737;}.cls-15{fill:#9c4236;}.cls-16{fill:#82372d;}.cls-17{fill:#1d1d1b;}.cls-18{fill:#8fd1cf;}.cls-19{opacity:0.1;}.cls-20{fill:#24257f;}.cls-21{opacity:0.15;}.cls-22{opacity:0.3;mix-blend-mode:overlay;}.cls-23{fill:#eb5139;}.cls-24{fill:#fefefe;}.cls-25{fill:#c8cdd0;}.cls-26{fill:#f2bf63;}.cls-27,.cls-42{fill:#565656;}.cls-28{fill:#e2e2e2;}.cls-29{opacity:0.05;}.cls-30{fill:#7c7c7c;}.cls-31{fill:#91d6f2;}.cls-32,.cls-35{opacity:0.2;}.cls-33{fill:none;stroke:#565656;stroke-linecap:round;stroke-linejoin:round;stroke-width:2px;}.cls-34{fill:#fe644c;}.cls-36{fill:#4fc839;}.cls-37,.cls-40,.cls-42{opacity:0.1;}.cls-38{fill:#9dbd00;}.cls-39{fill:#feac62;}.cls-41{fill:#799600;}</style></defs><title>Untitled-1</title><g class="cls-1"><g id="Layer_1" data-name="Layer 1"><polygon class="cls-2" points="331.13 100.74 237.07 153.34 237.07 155.05 302.46 192.8 396.51 138.49 396.51 136.79 331.13 100.74"/><polygon class="cls-3" points="396.51 136.79 302.46 191.1 237.07 153.34 331.13 99.04 396.51 136.79"/><polygon class="cls-4" points="331.13 102.19 391.06 136.79 302.46 187.95 242.52 153.34 331.13 102.19"/><polygon class="cls-5" points="337.11 105.64 339.4 106.96 319.35 121.95 317.23 123.54 300.02 136.41 297.81 138.06 284.17 148.27 282.94 149.19 282.64 149.28 281.82 149.54 281.82 149.54 252.22 158.94 249.86 157.58 279.38 148.2 280.81 147.75 281.83 146.98 294.35 137.62 296.51 136.01 313.91 122.99 316.01 121.42 337.11 105.64"/><polygon class="cls-5" points="344.4 109.85 346.71 111.18 331.63 123.36 329.53 125.06 313.88 137.69 311.82 139.36 294.08 153.68 292.19 155.21 272.83 170.84 270.53 169.51 289.83 153.92 291.73 152.4 308.28 139.02 310.37 137.34 326.01 124.7 328.08 123.04 344.4 109.85"/><polygon class="cls-5" points="383.8 132.59 386.07 133.91 356.64 148.62 354.11 149.88 340.58 156.64 337.84 158.01 319.1 167.37 316.65 168.59 291.07 181.37 288.79 180.06 314.31 167.31 316.76 166.09 337.06 155.94 339.91 154.52 351.29 148.84 353.82 147.57 383.8 132.59"/><path class="cls-5" d="M446.74,158.11l2.37,1.37q-2.94,3.14-5.58,6.37c-.52.63-1,1.26-1.52,1.9s-1,1.23-1.43,1.85c-4.46,5.9-7.28,10.92-8.68,15.55-.2.65-.36,1.29-.51,1.93h0a22.34,22.34,0,0,0-.55,4.9,18.48,18.48,0,0,0,.56,4.56,16.74,16.74,0,0,0,.67,2.11,21.56,21.56,0,0,0,4.25,6.85L434,206.85a23.79,23.79,0,0,1-4.63-6.84,20.52,20.52,0,0,1-.78-2.06,19.57,19.57,0,0,1-.93-6,23.92,23.92,0,0,1,.73-5.77q.23-.94.55-1.9c1.49-4.63,4.34-9.63,8.73-15.44.27-.35.54-.71.81-1.06.48-.63,1-1.25,1.47-1.87Q443.1,162,446.74,158.11Z" transform="translate(-91.49 -42)"/><path class="cls-6" d="M458.32,164.8l2.73,1.57a189.71,189.71,0,0,1-19,1.37c-1.19,0-2.38,0-3.56,0-3.47,0-6.94-.07-10.41-.25q-3.52-.18-7-.49c-1.17-.1-2.35-.22-3.52-.35q-4.44-.48-8.79-1.16-1.66-.26-3.32-.56c-4.65-.82-9.21-1.82-13.64-3l2.43-1.4c4.33,1.11,8.77,2,13.31,2.82q1.66.28,3.34.53,4.32.65,8.73,1.09c1.18.12,2.36.23,3.55.31q2.59.21,5.19.34,5.79.3,11.6.23,1.81,0,3.61-.08C448.49,165.7,453.44,165.34,458.32,164.8Z" transform="translate(-91.49 -42)"/><polygon class="cls-3" points="328.85 172.71 326.58 174.02 316.65 168.59 314.31 167.31 292.19 155.21 289.83 153.92 281.82 149.54 281.82 149.54 279.38 148.2 265.02 140.35 267.3 139.04 281.83 146.98 284.17 148.27 291.73 152.4 294.08 153.68 316.76 166.09 319.1 167.37 328.85 172.71"/><path class="cls-7" d="M387.19,176.74c-1.35-.19-2.59-.4-3.79-.64a72.82,72.82,0,0,1-10.56-3.18l17.44-10.07c3.27.84,8.48,2,11.87,2.69Z" transform="translate(-91.49 -42)"/><path class="cls-7" d="M408.4,206.65l-20.19-11,16-13h0a146.44,146.44,0,0,1,22.05,4.26,24.22,24.22,0,0,0-.56,5.11,20.2,20.2,0,0,0,.77,5.55Z" transform="translate(-91.49 -42)"/><path class="cls-7" d="M445.23,188.25c-1.25-.45-2.49-.89-3.71-1.3-2.45-.84-4.92-1.63-7.37-2.36,1.44-4.3,4.09-8.93,8.29-14.49l.93-1.21c5.73-.16,11.49-.58,17.15-1.24l12,7Z" transform="translate(-91.49 -42)"/><path class="cls-7" d="M433,194.35a17.53,17.53,0,0,1-.15-2.33,20.87,20.87,0,0,1,.24-3.15c1.58.5,3.2,1,4.83,1.58l1.7.59Z" transform="translate(-91.49 -42)"/><polygon class="cls-7" points="248.5 156.79 242.52 153.34 263.58 141.19 276.1 147.94 248.5 156.79"/><polygon class="cls-7" points="288.99 178.6 275.45 170.78 292.57 156.95 311.54 167.33 288.99 178.6"/><polygon class="cls-8" points="284.78 156.59 272.24 166.22 267.96 164.36 280.5 154.73 284.78 156.59"/><polygon class="cls-8" points="268.6 158.4 258.95 161.35 256.44 158.62 266.1 155.67 268.6 158.4"/><polygon class="cls-8" points="276.44 156.15 270.22 158.05 267.71 155.32 273.93 153.41 276.44 156.15"/><polygon class="cls-8" points="286.19 141.01 281.83 144.21 277.62 142.29 281.98 139.1 286.19 141.01"/><polygon class="cls-8" points="330.7 166.59 326.35 169.79 322.14 167.88 326.5 164.68 330.7 166.59"/><polygon class="cls-8" points="338.14 162.95 333.79 166.15 329.58 164.24 333.94 161.04 338.14 162.95"/><polygon class="cls-8" points="280.73 137.51 276.37 140.71 272.16 138.79 276.52 135.6 280.73 137.51"/><polygon class="cls-8" points="304.71 140.71 292.63 150.53 288.26 148.74 300.35 138.91 304.71 140.71"/><polygon class="cls-8" points="337.39 129.32 327.49 137.5 320.5 134.68 330.4 126.5 337.39 129.32"/><polygon class="cls-8" points="322.51 114.04 314.93 119.84 310.36 117.85 317.94 112.05 322.51 114.04"/><polygon class="cls-8" points="332.13 107.09 324.55 112.89 319.97 110.9 327.56 105.09 332.13 107.09"/><polygon class="cls-8" points="349.24 116.09 342.26 122.15 337.5 120.31 344.47 114.26 349.24 116.09"/><polygon class="cls-8" points="372.42 145.66 363.96 149.9 360.84 147.82 369.3 143.59 372.42 145.66"/><polygon class="cls-8" points="382.65 140.63 374.19 144.87 371.07 142.79 379.53 138.55 382.65 140.63"/><polygon class="cls-8" points="338.78 134.21 332.79 139.15 329.77 137.93 335.76 132.99 338.78 134.21"/><polygon class="cls-8" points="309.44 174.48 293.13 182.56 302.46 187.95 317.61 179.2 309.44 174.48"/><path class="cls-6" d="M456.39,193.89l-2.3,1.33c-2.8-1.14-5.63-2.27-8.5-3.34l-2.82-1q-2-.71-4-1.39-3.76-1.28-7.42-2.37h0c-1-.3-2-.59-3-.87a151.21,151.21,0,0,0-23.78-4.7l-1.26-.14-3.54-.34-2.74-.24c-2.55-.22-5.14-.44-7.72-.73q-1.74-.19-3.46-.44c-1.37-.2-2.73-.42-4.07-.69A58.38,58.38,0,0,1,369.25,175l2.29-1.32a53.81,53.81,0,0,0,11.27,3.5c1.69.33,3.42.61,5.18.83,1.17.15,2.34.28,3.52.4,2,.2,4,.37,6,.54,1.44.12,2.89.24,4.36.38q1.67.15,3.33.34l.18,0a155.31,155.31,0,0,1,23.53,4.6c1,.27,2,.55,3,.85q4.21,1.23,8.55,2.71c1.64.56,3.26,1.13,4.87,1.72l2.81,1C450.92,191.68,453.67,192.78,456.39,193.89Z" transform="translate(-91.49 -42)"/><polygon class="cls-9" points="317.15 148.72 317.15 159.48 327.27 153.64 327.27 142.87 327 142.8 326.71 142.72 325.71 142.45 325.42 142.37 324.43 142.09 324.13 142.01 323.14 141.74 322.85 141.66 322.21 141.49 321.58 142.39 321.28 142.81 320.29 144.23 320 144.65 319 146.07 318.71 146.49 317.72 147.91 317.42 148.33 317.15 148.72"/><polygon class="cls-10" points="317.15 156.98 327.27 151.14 327.27 153.64 317.15 159.48 317.15 156.98"/><polygon class="cls-4" points="320.35 152.58 324.07 150.44 324.07 145.3 320.35 147.44 320.35 152.58"/><polygon class="cls-11" points="323.72 150.23 323.72 145.9 320.7 147.65 320.7 151.98 323.72 150.23"/><polygon class="cls-4" points="320.61 149.14 323.89 147.25 323.89 146.85 320.61 148.74 320.61 149.14"/><polygon class="cls-4" points="319.91 153.47 324.49 150.83 324.49 150.19 319.91 152.84 319.91 153.47"/><polygon class="cls-4" points="307.03 153.64 317.15 159.48 317.15 148.72 307.03 142.88 307.03 153.64"/><polygon class="cls-12" points="307.03 151.14 317.15 156.98 317.15 159.48 307.03 153.64 307.03 151.14"/><polygon class="cls-5" points="310.39 148.76 313.8 150.73 313.8 157.54 310.39 155.57 310.39 148.76"/><polygon class="cls-13" points="313.45 156.94 313.45 150.93 310.74 149.37 310.74 155.37 313.45 156.94"/><polygon class="cls-14" points="316.42 149.47 317.47 147.96 317.47 147.96 322.11 141.33 322.57 140.67 323.04 140.8 328.05 142.17 328.05 142.17 328.73 142.36 329.05 142.45 328.58 143.45 322.57 141.79 316.57 150.38 316.1 149.93 316.42 149.47"/><polygon class="cls-15" points="306.11 143.52 307.17 142.01 307.17 142.01 311.81 135.39 312.27 134.72 312.74 134.85 317.74 136.22 317.74 136.22 318.43 136.41 318.75 136.5 318.28 137.5 312.27 135.85 306.26 144.44 305.79 143.98 306.11 143.52"/><polygon class="cls-12" points="312.27 134.72 305.79 143.98 316.1 149.93 322.57 140.67 312.27 134.72"/><polygon class="cls-10" points="312.27 134.72 318.75 136.5 329.05 142.45 322.57 140.67 312.27 134.72"/><polygon class="cls-16" points="306.25 144.43 305.79 143.98 316.1 149.93 316.56 150.38 306.25 144.43"/><polygon class="cls-15" points="317.53 137.35 319.46 138.46 321.38 138.89 319.46 136.24 317.53 137.35"/><polygon class="cls-14" points="317.53 134.2 319.46 135.31 321.38 134.2 319.46 133.09 317.53 134.2"/><polygon class="cls-17" points="320.44 134.2 319.46 133.63 318.48 134.2 319.46 134.77 320.44 134.2"/><polygon class="cls-14" points="319.46 135.31 319.46 138.46 321.38 138.99 321.38 134.2 319.46 135.31"/><polygon class="cls-12" points="317.53 134.2 319.46 135.31 319.46 138.46 317.53 137.35 317.53 134.2"/><polygon class="cls-17" points="320.44 134.2 319.46 133.63 319.46 134.77 320.44 134.2"/><polygon class="cls-4" points="319.46 135.92 319.46 136.57 321.38 135.46 321.38 134.8 319.46 135.92"/><polygon class="cls-9" points="319.46 136.57 317.53 135.46 317.53 134.8 319.46 135.92 319.46 136.57"/><polygon class="cls-6" points="310.44 54.2 319.68 48.88 319.74 94.44 310.51 99.76 274.56 120.59 274.49 75.03 310.44 54.2"/><polygon class="cls-9" points="274.56 120.59 251.25 107.18 251.18 61.62 274.49 75.03 274.56 120.59"/><polygon class="cls-10" points="274.55 116.55 251.24 103.14 251.25 107.18 274.56 120.59 274.55 116.55"/><polygon class="cls-4" points="287.14 40.79 296.37 35.47 319.68 48.88 310.44 54.2 310.44 54.2 274.49 75.03 251.18 61.62 287.14 40.79"/><polygon class="cls-12" points="310.5 95.72 319.74 90.4 319.74 94.44 310.51 99.76 274.56 120.59 274.55 116.55 310.5 95.72"/><polygon class="cls-12" points="270.9 44.7 298.74 28.56 322.91 50.13 276.49 77.03 248.98 61.2 270.9 44.7"/><polygon class="cls-12" points="295.14 56.81 291.03 53.31 286.93 61.57 295.14 56.81"/><polygon class="cls-18" points="293.71 56.68 291.3 54.63 288.9 59.47 293.71 56.68"/><path class="cls-4" d="M382.72,96.3l2.84,2.41L379.89,102Zm.14.66-2,4,4-2.29Z" transform="translate(-91.49 -42)"/><polygon class="cls-10" points="291.03 53.31 286.93 61.57 286.9 61.56 279.44 46.64 291.03 53.31"/><polygon class="cls-12" points="311.42 47.27 307.3 43.76 303.2 52.03 311.42 47.27"/><polygon class="cls-18" points="309.98 47.14 307.57 45.09 305.18 49.92 309.98 47.14"/><path class="cls-4" d="M399,86.76l2.84,2.41-5.66,3.28Zm.14.66-2,4,4-2.29Z" transform="translate(-91.49 -42)"/><polygon class="cls-10" points="307.3 43.76 303.2 52.03 303.17 52.01 295.72 37.09 307.3 43.76"/><polygon class="cls-11" points="307.27 62.05 314.22 58.02 314.23 67.26 314.24 68.2 314.23 68.49 314.24 70.38 314.24 71.06 307.29 75.09 307.29 74.2 307.28 66.22 307.27 64.32 307.27 64.03 307.27 63.09 307.27 62.05"/><path class="cls-4" d="M398.78,117.09V104l6.95-4,0,9.23v3.81l-6.95,4Zm-.43.74.64-.37,6.95-4,.21-.12v-4.05l0-9.23v-.74l-.64.37-6.95,4-.21.12v4.41l0,8v1.62Z" transform="translate(-91.49 -42)"/><polygon class="cls-4" points="307.22 65.8 314.28 61.71 314.28 61.08 307.22 65.17 307.22 65.8"/><polygon class="cls-4" points="311.3 63.28 311.31 72.78 310.76 73.1 310.75 63.59 311.3 63.28"/><g class="cls-19"><polygon class="cls-20" points="313.45 58.47 314.22 58.02 314.24 71.06 313.47 70.62 313.45 58.47"/></g><g class="cls-21"><polygon class="cls-20" points="307.29 74.2 313.47 70.62 314.24 71.06 307.29 75.09 307.29 74.2"/></g><g class="cls-22"><polygon class="cls-4" points="307.27 64.32 314.23 68.49 314.24 70.38 307.28 66.22 307.27 64.32"/><polygon class="cls-4" points="307.27 63.09 314.23 67.26 314.24 68.2 307.27 64.03 307.27 63.09"/></g><polygon class="cls-18" points="307.27 81.43 314.22 77.41 314.23 86.64 314.24 87.59 314.23 87.88 314.24 89.76 314.24 90.45 307.29 94.47 307.29 93.59 307.28 85.6 307.27 83.71 307.27 83.42 307.27 82.47 307.27 81.43"/><path class="cls-4" d="M398.78,136.47v-13l6.95-4,0,9.23v3.81l-6.95,4Zm-.43.74.64-.37,6.95-4,.21-.12v-4.05l0-9.23v-.74l-.64.37-6.95,4-.21.12v4.41l0,8v1.62Z" transform="translate(-91.49 -42)"/><polygon class="cls-4" points="307.22 85.18 314.28 81.1 314.28 80.46 307.22 84.55 307.22 85.18"/><polygon class="cls-4" points="311.3 82.67 311.31 92.17 310.76 92.49 310.75 82.98 311.3 82.67"/><g class="cls-19"><polygon class="cls-20" points="313.45 77.85 314.22 77.41 314.24 90.45 313.47 90.01 313.45 77.85"/></g><g class="cls-21"><polygon class="cls-20" points="307.29 93.59 313.47 90.01 314.24 90.45 307.29 94.47 307.29 93.59"/></g><g class="cls-22"><polygon class="cls-4" points="307.27 83.71 314.23 87.88 314.24 89.76 307.28 85.6 307.27 83.71"/><polygon class="cls-4" points="307.27 82.47 314.23 86.64 314.24 87.59 307.27 83.42 307.27 82.47"/></g><polygon class="cls-18" points="293.88 69.83 300.83 65.81 300.85 75.04 300.85 75.98 300.85 76.27 300.85 78.16 300.85 78.85 293.9 82.87 293.9 81.99 293.89 74 293.88 72.11 293.89 71.82 293.88 70.87 293.88 69.83"/><path class="cls-4" d="M385.39,124.87v-13l6.95-4,0,9.23v3.81l-6.95,4Zm-.43.74.64-.37,6.95-4,.21-.12V117l0-9.23v-.74l-.64.37-6.95,4-.21.12V116l0,8v1.62Z" transform="translate(-91.49 -42)"/><polygon class="cls-4" points="293.84 73.58 300.89 69.49 300.89 68.86 293.84 72.95 293.84 73.58"/><polygon class="cls-4" points="297.91 71.06 297.92 80.57 297.38 80.89 297.36 71.38 297.91 71.06"/><g class="cls-19"><polygon class="cls-20" points="300.06 66.25 300.83 65.81 300.85 78.85 300.08 78.41 300.06 66.25"/></g><g class="cls-21"><polygon class="cls-20" points="293.9 81.99 300.08 78.41 300.85 78.85 293.9 82.87 293.9 81.99"/></g><g class="cls-22"><polygon class="cls-4" points="293.88 72.11 300.85 76.27 300.85 78.16 293.89 74 293.88 72.11"/><polygon class="cls-4" points="293.88 70.87 300.85 75.04 300.85 75.98 293.89 71.82 293.88 70.87"/></g><polygon class="cls-18" points="280.5 77.61 287.44 73.59 287.46 82.82 287.46 83.77 287.46 84.06 287.46 85.94 287.46 86.63 280.52 90.66 280.52 89.77 280.5 81.78 280.5 79.89 280.5 79.6 280.5 78.66 280.5 77.61"/><path class="cls-4" d="M372,132.65v-13l6.95-4,0,9.23v3.81l-6.95,4Zm-.43.74.64-.37,6.95-4,.21-.12v-4.05l0-9.23v-.74l-.64.37-6.95,4-.21.12v4.41l0,8v1.62Z" transform="translate(-91.49 -42)"/><polygon class="cls-4" points="280.45 81.36 287.5 77.28 287.5 76.64 280.45 80.73 280.45 81.36"/><polygon class="cls-4" points="284.52 78.85 284.54 88.35 283.99 88.67 283.98 79.16 284.52 78.85"/><g class="cls-19"><polygon class="cls-20" points="286.68 74.03 287.44 73.59 287.46 86.63 286.7 86.19 286.68 74.03"/></g><g class="cls-21"><polygon class="cls-20" points="280.52 89.77 286.7 86.19 287.46 86.63 280.52 90.66 280.52 89.77"/></g><g class="cls-22"><polygon class="cls-4" points="280.5 79.89 287.46 84.06 287.46 85.94 280.5 81.78 280.5 79.89"/><polygon class="cls-4" points="280.5 78.66 287.46 82.82 287.46 83.77 280.5 79.6 280.5 78.66"/></g><polygon class="cls-11" points="280.52 96.64 287.47 92.61 287.49 101.85 287.49 102.79 287.49 103.08 287.49 104.97 287.49 105.65 280.54 109.68 280.54 108.79 280.53 100.81 280.52 98.91 280.53 98.62 280.52 97.68 280.52 96.64"/><path class="cls-4" d="M372,151.68v-13l6.95-4,0,9.23v3.81l-6.95,4Zm-.43.74.64-.37,6.95-4,.21-.12v-4.05l0-9.23v-.74l-.64.37-6.95,4-.21.12v4.41l0,8v1.62Z" transform="translate(-91.49 -42)"/><polygon class="cls-4" points="280.48 100.39 287.53 96.3 287.53 95.67 280.48 99.76 280.48 100.39"/><polygon class="cls-4" points="284.55 97.87 284.56 107.38 284.02 107.69 284 98.19 284.55 97.87"/><g class="cls-19"><polygon class="cls-20" points="286.7 93.06 287.47 92.61 287.49 105.65 286.72 105.21 286.7 93.06"/></g><g class="cls-21"><polygon class="cls-20" points="280.54 108.79 286.72 105.21 287.49 105.65 280.54 109.68 280.54 108.79"/></g><g class="cls-22"><polygon class="cls-4" points="280.52 98.91 287.49 103.08 287.49 104.97 280.53 100.81 280.52 98.91"/><polygon class="cls-4" points="280.52 97.68 287.49 101.85 287.49 102.79 280.53 98.62 280.52 97.68"/></g><polygon class="cls-10" points="248.98 61.2 270.9 44.7 276.49 77.03 248.98 61.2"/><polygon class="cls-11" points="266.23 75.38 259.29 71.36 259.27 80.59 259.27 81.53 259.27 81.82 259.26 83.71 259.27 84.4 266.21 88.42 266.21 87.54 266.23 79.55 266.23 77.66 266.23 77.37 266.23 76.42 266.23 75.38"/><path class="cls-4" d="M357.7,130.42l-6.95-4v-3.81l0-9.23,6.95,4v13Zm.43.74v-14l-.21-.12L351,113l-.64-.37v.74l0,9.23v4.05l.21.12,6.95,4,.64.37Z" transform="translate(-91.49 -42)"/><polygon class="cls-4" points="266.28 79.13 259.23 75.04 259.23 74.41 266.28 78.5 266.28 79.13"/><polygon class="cls-4" points="262.21 76.61 262.19 86.12 262.74 86.44 262.75 76.93 262.21 76.61"/><g class="cls-19"><polygon class="cls-20" points="260.06 71.8 259.29 71.36 259.27 84.4 260.03 83.96 260.06 71.8"/></g><g class="cls-21"><polygon class="cls-20" points="266.21 87.54 260.03 83.96 259.27 84.4 266.21 88.42 266.21 87.54"/></g><g class="cls-22"><polygon class="cls-4" points="266.23 77.66 259.27 81.82 259.26 83.71 266.23 79.55 266.23 77.66"/><polygon class="cls-4" points="266.23 76.42 259.27 80.59 259.27 81.53 266.23 77.37 266.23 76.42"/></g><polygon class="cls-18" points="266.21 94.41 259.26 90.38 259.24 99.61 259.24 100.56 259.24 100.85 259.24 102.73 259.24 103.42 266.19 107.44 266.19 106.56 266.2 98.57 266.2 96.68 266.2 96.39 266.2 95.45 266.21 94.41"/><path class="cls-4" d="M357.67,149.44l-6.95-4v-3.81l0-9.23,6.95,4v4.17l0,8v.88Zm.43.74v-1.62l0-8v-4.41l-.21-.12L351,132l-.64-.37v.74l0,9.23v4.05l.21.12,6.95,4,.64.37Z" transform="translate(-91.49 -42)"/><polygon class="cls-4" points="266.25 98.15 259.2 94.07 259.2 93.44 266.25 97.52 266.25 98.15"/><polygon class="cls-4" points="262.18 95.64 262.17 105.14 262.71 105.46 262.73 95.95 262.18 95.64"/><g class="cls-19"><polygon class="cls-20" points="260.03 90.83 259.26 90.38 259.24 103.42 260.01 102.98 260.03 90.83"/></g><g class="cls-21"><polygon class="cls-20" points="266.19 106.56 260.01 102.98 259.24 103.42 266.19 107.44 266.19 106.56"/></g><g class="cls-22"><polygon class="cls-4" points="266.2 96.68 259.24 100.85 259.24 102.73 266.2 98.57 266.2 96.68"/><polygon class="cls-4" points="266.2 95.45 259.24 99.61 259.24 100.56 266.2 96.39 266.2 95.45"/></g><polygon class="cls-6" points="292.76 105.97 296.08 107.89 305.5 102.42 302.18 100.5 292.76 105.97"/><polygon class="cls-3" points="296.08 107.89 296.08 109.24 297.24 108.56 297.25 108.56 297.9 108.18 305.5 103.77 305.5 102.42 296.08 107.89"/><polygon class="cls-6" points="296.08 109.24 297.24 109.91 298.4 109.24 298.4 109.23 306.66 104.4 305.5 103.73 297.9 108.18 297.25 108.56 297.24 108.56 296.08 109.24"/><polygon class="cls-3" points="297.24 109.91 297.25 111.26 298.4 110.59 306.67 105.75 306.66 104.4 298.4 109.24 297.24 109.91"/><polygon class="cls-6" points="297.25 111.26 298.4 111.92 307.82 106.42 306.67 105.75 298.4 110.58 298.4 110.59 297.25 111.26"/><polygon class="cls-3" points="298.4 111.92 298.4 113.27 307.82 107.77 307.82 106.42 298.4 111.92"/><polygon class="cls-9" points="292.76 105.97 296.08 107.89 296.08 109.24 296.08 109.24 297.24 109.91 297.25 111.26 298.4 111.92 298.4 113.27 292.76 110 292.76 105.97"/><polygon class="cls-13" points="301.45 101.26 301.14 101.7 300.61 101.4 300.59 87.48 294.53 91 294.55 104.91 294.51 105.55 293.98 105.24 293.96 90.71 301.16 86.54 301.69 86.84 301.45 101.26"/><polygon class="cls-13" points="300.8 87.69 300.81 101.61 300.81 101.61 294.75 105.12 294.75 105.12 294.73 91.2 300.8 87.69"/><polygon class="cls-5" points="294.49 91.01 294.51 105.55 295.08 105.22 295.06 91.3 301.12 87.79 301.14 101.7 301.71 101.38 301.69 86.84 294.49 91.01"/><path class="cls-5" d="M387.53,140.65a.37.37,0,0,0,.37-.37v-1.35a.63.63,0,0,0-.31-.54l-.29-.16a.22.22,0,1,0-.22.39l.29.16a.18.18,0,0,1,.09.15v1.22l-.15-.09a.22.22,0,1,0-.22.39l.27.15A.37.37,0,0,0,387.53,140.65Z" transform="translate(-91.49 -42)"/><path class="cls-12" d="M399.69,129.17l-4.93-2.85v-1.58l4.17,3a1.93,1.93,0,0,1,.76,1.43Z" transform="translate(-91.49 -42)"/><polygon class="cls-12" points="303.27 82.74 308.2 87.16 297.01 93.62 292.08 89.2 303.27 82.74"/><path class="cls-10" d="M388.5,135.63l-4.93-2.85V131.2l4.17,3a1.93,1.93,0,0,1,.76,1.43Z" transform="translate(-91.49 -42)"/><polygon class="cls-23" points="194.28 39.13 113.8 39.13 33.32 39.13 0 83.49 113.8 83.49 227.6 83.49 194.28 39.13"/><polygon class="cls-24" points="113.8 95.14 16.64 95.14 16.64 156.7 113.8 156.7 210.96 156.7 210.96 95.14 113.8 95.14"/><rect class="cls-25" x="16.64" y="151.3" width="194.32" height="5.39"/><path class="cls-23" d="M185,202.12V162.24a20.29,20.29,0,0,1,40.59,0v39.87Z" transform="translate(-91.49 -42)"/><path class="cls-26" d="M205.29,145.37h0a16.87,16.87,0,0,1,16.87,16.87v36.48H188.41V162.25a16.87,16.87,0,0,1,16.86-16.88Z" transform="translate(-91.49 -42)"/><polygon class="cls-27" points="113.8 83.49 9.32 83.49 9.32 88.97 113.8 88.97 218.28 88.97 218.28 83.49 113.8 83.49"/><polygon class="cls-25" points="113.8 88.97 5.64 88.97 8.38 95.14 219.23 95.14 221.96 88.97 113.8 88.97"/><polygon class="cls-28" points="113.8 156.7 2.27 156.7 2.27 178.54 113.8 178.54 225.33 178.54 225.33 156.7 113.8 156.7"/><rect class="cls-25" x="2.27" y="170.35" width="223.07" height="8.19"/><polygon class="cls-24" points="171.51 57.3 171.51 83.49 56.1 83.49 56.1 57.3 80.23 38.02 87.54 32.18 113.8 11.2 140.05 32.17 147.36 38.02 171.51 57.3"/><rect class="cls-29" x="99.71" y="70.24" width="28.17" height="13.26"/><polygon class="cls-28" points="171.51 57.3 171.51 65.18 113.8 19.08 56.1 65.18 56.1 57.3 113.8 11.2 171.51 57.3"/><polygon class="cls-27" points="113.8 173.08 88.01 173.08 88.01 178.54 113.8 178.54 139.59 178.54 139.59 173.08 113.8 173.08"/><polygon class="cls-30" points="137.15 167.62 113.8 167.62 90.45 167.62 88.01 173.08 113.8 173.08 139.59 173.08 137.15 167.62"/><polygon class="cls-27" points="113.8 162.16 90.33 162.16 90.33 167.62 113.8 167.62 137.27 167.62 137.27 162.16 113.8 162.16"/><polygon class="cls-30" points="134.82 156.7 113.8 156.7 92.78 156.7 90.33 162.16 113.8 162.16 137.27 162.16 134.82 156.7"/><rect class="cls-23" x="32.51" y="136" width="36.48" height="4.6"/><rect class="cls-31" x="33.18" y="103.58" width="35.15" height="32.43"/><polygon class="cls-32" points="67.14 103.58 34.7 136.01 33.18 136.01 33.18 121.42 51.02 103.58 67.14 103.58"/><polygon class="cls-32" points="68.33 108.83 68.33 117.21 49.53 136.01 41.14 136.01 68.33 108.83"/><rect class="cls-33" x="33.17" y="103.58" width="35.15" height="32.43"/><line class="cls-33" x1="50.75" y1="103.58" x2="50.75" y2="136.01"/><line class="cls-33" x1="33.18" y1="119.8" x2="68.32" y2="119.8"/><path class="cls-34" d="M267.91,107.6l-62.63-50-62.65,50-4.27-5.34,64.76-51.74a3.42,3.42,0,0,1,4.27,0l64.76,51.74Z" transform="translate(-91.49 -42)"/><rect class="cls-23" x="158.61" y="136" width="36.48" height="4.6"/><rect class="cls-31" x="159.28" y="103.58" width="35.15" height="32.43"/><polygon class="cls-32" points="193.24 103.58 160.8 136.01 159.28 136.01 159.28 121.42 177.12 103.58 193.24 103.58"/><polygon class="cls-32" points="194.43 108.83 194.43 117.21 175.63 136.01 167.24 136.01 194.43 108.83"/><rect class="cls-33" x="159.27" y="103.58" width="35.15" height="32.43"/><line class="cls-33" x1="176.85" y1="103.58" x2="176.85" y2="136.01"/><line class="cls-33" x1="159.28" y1="119.8" x2="194.43" y2="119.8"/><path class="cls-31" d="M215.57,89.25V106.9H195V89.25a10.27,10.27,0,0,1,20.53,0Z" transform="translate(-91.49 -42)"/><g class="cls-35"><path class="cls-4" d="M214.32,84.32,195,103.63V94.31l14.46-14.45A10.32,10.32,0,0,1,214.32,84.32Z" transform="translate(-91.49 -42)"/></g><g class="cls-35"><path class="cls-4" d="M215.57,89.25v3L200.93,106.9h-4.67l19.16-19.16A10.32,10.32,0,0,1,215.57,89.25Z" transform="translate(-91.49 -42)"/></g><line class="cls-33" x1="113.8" y1="36.97" x2="113.8" y2="64.9"/><line class="cls-33" x1="103.52" y1="52.33" x2="124.08" y2="52.33"/><path class="cls-33" d="M205.29,79h0a10.27,10.27,0,0,1,10.27,10.27V106.9H195V89.25A10.27,10.27,0,0,1,205.23,79Z" transform="translate(-91.49 -42)"/><rect class="cls-23" x="99.71" y="64.21" width="28.17" height="6.02"/><rect class="cls-23" x="99.71" y="64.21" width="28.17" height="3.01"/><circle class="cls-27" cx="124.2" cy="134.23" r="3.34"/><rect class="cls-36" x="50.65" y="24.71" width="16.49" height="14.43"/><polygon class="cls-28" points="67.14 24.7 67.14 29.33 50.65 24.7 67.14 24.7"/><rect class="cls-23" x="47.3" y="19.43" width="23.19" height="5.28" rx="2.63" ry="2.63"/><rect class="cls-23" x="21.24" y="95.14" width="5.6" height="61.56"/><rect class="cls-37" x="21.24" y="95.14" width="5.6" height="4.57"/><rect class="cls-23" x="74.56" y="95.14" width="5.6" height="61.56"/><rect class="cls-37" x="74.56" y="95.14" width="5.6" height="4.57"/><rect class="cls-23" x="147.44" y="95.14" width="5.6" height="61.56"/><rect class="cls-37" x="147.44" y="95.14" width="5.6" height="4.57"/><rect class="cls-23" x="200.76" y="95.14" width="5.6" height="61.56"/><rect class="cls-37" x="200.76" y="95.14" width="5.6" height="4.57"/><path class="cls-38" d="M309.67,185.14a9.58,9.58,0,0,1-.92,1.3H288a3,3,0,0,1-.86-1.16,1.75,1.75,0,0,1,.26-1.76,1.19,1.19,0,0,1,1.66-.1,4.72,4.72,0,0,1,2.05-2.38,2.13,2.13,0,0,1,2.79.75,6.55,6.55,0,0,1,1.37-3.42,3.83,3.83,0,0,1,3.26-1.09,5.21,5.21,0,0,1,3.08,1.66,2.7,2.7,0,0,1,.86,1.75,3,3,0,0,1,5.47,2.5,1.28,1.28,0,0,1,1.54.36A1.66,1.66,0,0,1,309.67,185.14Z" transform="translate(-91.49 -42)"/><path class="cls-39" d="M308.93,185.86v8.78a4.06,4.06,0,0,1-4.06,4.05H291.69a4.05,4.05,0,0,1-4.06-4h0v-8.78Z" transform="translate(-91.49 -42)"/><g class="cls-40"><rect x="196.15" y="143.86" width="21.32" height="3.71"/></g><path class="cls-38" d="M152.72,185.14a9.58,9.58,0,0,1-.92,1.3H131a3,3,0,0,1-.86-1.16,1.75,1.75,0,0,1,.26-1.76,1.19,1.19,0,0,1,1.66-.1,4.72,4.72,0,0,1,2.05-2.38,2.13,2.13,0,0,1,2.79.75,6.55,6.55,0,0,1,1.37-3.42,3.83,3.83,0,0,1,3.26-1.09,5.21,5.21,0,0,1,3.08,1.66,2.7,2.7,0,0,1,.86,1.75,3,3,0,0,1,5.47,2.5,1.28,1.28,0,0,1,1.54.36A1.66,1.66,0,0,1,152.72,185.14Z" transform="translate(-91.49 -42)"/><path class="cls-23" d="M152,185.86v8.78a4.06,4.06,0,0,1-4.06,4.05h-13.2a4.05,4.05,0,0,1-4.06-4h0v-8.78Z" transform="translate(-91.49 -42)"/><g class="cls-40"><rect x="39.19" y="143.86" width="21.32" height="3.71"/></g><path class="cls-23" d="M276,185.86v8.78a4.06,4.06,0,0,1-4,4.05h-6.36a4.05,4.05,0,0,1-4.06-4h0v-8.78Z" transform="translate(-91.49 -42)"/><g class="cls-40"><rect x="170.06" y="143.86" width="14.47" height="3.71"/></g><path class="cls-41" d="M261.71,185.86s-6.09-3.83-6.46-11.1c0,0,8.8-.49,13.08,11.1Z" transform="translate(-91.49 -42)"/><path class="cls-38" d="M265.22,185.86s-3.35-11,3-17.38c0,0,5.59,3.74,2.3,17.38Z" transform="translate(-91.49 -42)"/><path class="cls-41" d="M269.08,185.86s-.93-8.05,7.89-12.46c0,0,3.21,5.36-.94,12.46Z" transform="translate(-91.49 -42)"/><path class="cls-39" d="M115.19,185.86v8.78a4.06,4.06,0,0,1-4,4.05h-6.38a4.05,4.05,0,0,1-4.06-4h0v-8.78Z" transform="translate(-91.49 -42)"/><g class="cls-40"><rect x="9.23" y="143.86" width="14.47" height="3.71"/></g><path class="cls-41" d="M100.89,185.86s-6.09-3.83-6.46-11.1c0,0,8.8-.49,13.08,11.1Z" transform="translate(-91.49 -42)"/><path class="cls-41" d="M104.39,185.86s-3.35-11,3-17.38c0,0,5.59,3.74,2.3,17.38Z" transform="translate(-91.49 -42)"/><path class="cls-38" d="M108.25,185.86s-.93-8.05,7.89-12.46c0,0,3.21,5.36-.94,12.46Z" transform="translate(-91.49 -42)"/><circle class="cls-24" cx="283.32" cy="219.41" r="27.89" transform="translate(-163.65 222.6) rotate(-45)"/><path class="cls-42" d="M303,239.12a27.89,27.89,0,0,1-39.44,0l-.09-.09A27.89,27.89,0,0,0,299,196.35a27.91,27.91,0,0,1,4,42.77Z" transform="translate(-91.49 -42)"/><path class="cls-27" d="M317.79,251.26l-12.12-12.12a29.83,29.83,0,1,0-2.62,2.62l12.12,12.12a1.85,1.85,0,1,0,2.72-2.53Zm-16-13.39a26.13,26.13,0,1,1,0-37,26.13,26.13,0,0,1,0,37Z" transform="translate(-91.49 -42)"/><path class="cls-34" d="M300.37,215.35c0,5.74-4.79,10.95-9.86,15.14-2.5,2.05-5.08,3.9-7.21,5.47a106,106,0,0,1-9.39-7.35c-4.2-3.84-7.68-8.34-7.68-13.25,0-6.07,3.53-10,9.66-10,3.88,0,5.65,1.77,7.4,4.11,1.77-2.35,3.53-4.11,7.4-4.11C296.84,205.34,300.37,209.27,300.37,215.35Z" transform="translate(-91.49 -42)"/><path class="cls-24" d="M312.63,53.56V60.4a5.7,5.7,0,0,1-5.7,5.7H280.09l-4,6.84-4-6.84H245.29a5.7,5.7,0,0,1-5.7-5.7h0V53.56a5.7,5.7,0,0,1,5.7-5.7h61.59a5.7,5.7,0,0,1,5.75,5.65Z" transform="translate(-91.49 -42)"/><polygon class="cls-26" points="210.19 9.4 211.38 13.07 215.23 13.07 212.11 15.34 213.3 19 210.19 16.74 207.06 19 208.26 15.34 205.13 13.07 208.99 13.07 210.19 9.4"/><polygon class="cls-26" points="197.35 9.4 198.55 13.07 202.41 13.07 199.28 15.34 200.47 19 197.35 16.74 194.23 19 195.43 15.34 192.31 13.07 196.16 13.07 197.35 9.4"/><polygon class="cls-26" points="184.53 9.4 185.72 13.07 189.58 13.07 186.46 15.34 187.65 19 184.53 16.74 181.41 19 182.61 15.34 179.49 13.07 183.34 13.07 184.53 9.4"/><polygon class="cls-26" points="171.7 9.4 172.9 13.07 176.75 13.07 173.63 15.34 174.82 19 171.7 16.74 168.58 19 169.78 15.34 166.66 13.07 170.51 13.07 171.7 9.4"/><polygon class="cls-26" points="158.88 9.4 160.07 13.07 163.93 13.07 160.81 15.34 162 19 158.88 16.74 155.76 19 156.95 15.34 153.84 13.07 157.69 13.07 158.88 9.4"/><path class="cls-34" d="M119,42a13.52,13.52,0,0,0-13.52,13.52C105.43,63,119,76.85,119,76.85S132.47,63,132.47,55.52A13.52,13.52,0,0,0,119,42Zm3.61,20.12c-1.25,1-2.54,2-3.61,2.74a52.85,52.85,0,0,1-4.7-3.68c-2.09-1.92-3.84-4.17-3.84-6.62,0-3,1.77-5,4.83-5A4.17,4.17,0,0,1,119,51.6a4.15,4.15,0,0,1,3.7-2.05c3.07,0,4.83,2,4.83,5,0,2.86-2.39,5.46-4.93,7.57Z" transform="translate(-91.49 -42)"/></g></g></svg>