<svg xmlns="http://www.w3.org/2000/svg" viewBox="0 0 357.32 278.92"><defs><style>.cls-1{isolation:isolate;}.cls-2{fill:#ececec;}.cls-3,.cls-9{fill:#b6baba;}.cls-14,.cls-17,.cls-19,.cls-22,.cls-25,.cls-26,.cls-3,.cls-8{mix-blend-mode:multiply;}.cls-4{fill:#cecece;}.cls-26,.cls-5{fill:#eaeaea;}.cls-6{fill:#2d3947;}.cls-7{fill:#d2d904;}.cls-10{fill:#b2b222;}.cls-11{fill:#fffaee;}.cls-12{fill:#e1dacd;}.cls-13,.cls-22{fill:#ff5353;}.cls-14,.cls-20{fill:#d2d8d8;}.cls-15{fill:#c61e1e;}.cls-16{fill:#944542;}.cls-17{fill:#939797;}.cls-18{fill:#66a5d7;}.cls-19,.cls-23{fill:#98bdd1;}.cls-21{fill:#d6dcdc;}.cls-24{fill:#fff;}.cls-25{fill:#d9d9d9;}.cls-27{fill:#c11a1a;}.cls-28{fill:none;stroke:#ff5353;stroke-miterlimit:10;stroke-width:2.35px;}.cls-29{fill:#89888c;}.cls-30{fill:#131312;}.cls-31{fill:#db4a4a;}.cls-32{fill:#961a1a;}</style></defs><title>4303798</title><g class="cls-1"><g id="OBJECTS"><path class="cls-2" d="M276.55,17.1H319a3.09,3.09,0,0,0-1.81-2.39,4.65,4.65,0,0,0-2.77-.2,1.62,1.62,0,0,1-.78,0,1.56,1.56,0,0,1-.62-.47,13.71,13.71,0,0,0-16.9-2.41c-1.24.72-2.35,1.64-3.57,2.39a2.26,2.26,0,0,1-.85.37,2.44,2.44,0,0,1-1.36-.35c-2-1-4.48-1.94-6.46-.84a15.67,15.67,0,0,1-1.71,1.06,5.29,5.29,0,0,1-2.71,0,4.15,4.15,0,0,0-2.68.24A1.75,1.75,0,0,0,276.55,17.1Z" transform="translate(-9.68 -9.78)"/><path class="cls-3" d="M35.46,247.86l.11.11a12.48,12.48,0,0,0,1.94,1.51l0,0,.53.32v0A11.34,11.34,0,0,0,41,250.95c2.18,4.84,9.94,8.33,19.12,8.15q1.64,0,3.2-.21c1-.12,2.05-.29,3-.49l9.62,4.36L77.37,268,82,265.35l16.45,10.18L119,279.28l.42-2.23-.13-.76.06,0-.06,0-1.23-7L79.29,248.47l.33-1.76,0,.08a6.41,6.41,0,0,0,.13-1.43c-.14-6.15-9-11-19.74-10.76a33.66,33.66,0,0,0-4,.33c-.77-7.16-6.05-12.73-12.45-12.73-6.92,0-12.56,6.51-12.56,14.52,0,.43,0,.87.06,1.29,0,.15,0,.29,0,.43s.07.57.11.85,0,.32.07.48q.1.53.23,1c.06.23.12.45.19.67l.14.46c.08.23.16.46.24.69l.15.36q.24.58.52,1.13l.25.47.3.51c.12.2.25.4.39.6l.23.34c.23.31.47.62.71.91l.13.14Q35.07,247.49,35.46,247.86Zm18.18-12.51c-6.92,1.51-12,5.16-12.76,9.49,0,0,0-.06,0-.1L40.46,247a6.51,6.51,0,0,0-.11,1.31,9.27,9.27,0,0,1-1.31-.64,9.81,9.81,0,0,1-1-.64l-.2-.15a10.61,10.61,0,0,1-1-.93l-.2-.22a11.51,11.51,0,0,1-.82-1l-.1-.13a12.4,12.4,0,0,1-.81-1.3l-.06-.11a13.17,13.17,0,0,1-.62-1.35l0-.12a13.69,13.69,0,0,1-.49-1.55l0-.07a14.15,14.15,0,0,1-.27-1.45c0-.12,0-.23,0-.35a14.28,14.28,0,0,1-.1-1.59c0-6.71,4.58-12.17,10.2-12.17C48.74,224.56,53.06,229.29,53.64,235.35Z" transform="translate(-9.68 -9.78)"/><path class="cls-4" d="M220.08,59l142.5,82.84a8.89,8.89,0,0,1-.06,15.4L296,195.2a8.89,8.89,0,0,0,0,15.45,8.89,8.89,0,0,1,.13,15.38l-48.9,28.85a8.89,8.89,0,0,1-8.83.11l-18.23-10.13a8.88,8.88,0,0,0-8.59,0q-12.93,7.1-25.81,14.28c-4.54,2.53-9.22,4.93-13.62,7.68-5,3.11-11.58,3.58-17.17,1.91-3.45-1-6.57-3.18-9.68-5l-9.16-5.23q-11.12-6.36-22.22-12.75l-25.36-14.6-26-15-24.25-14-20-11.56-4.2-2.43a8.88,8.88,0,0,1,0-15.38L211.17,59A8.89,8.89,0,0,1,220.08,59Z" transform="translate(-9.68 -9.78)"/><path class="cls-5" d="M220.08,55.53l142.5,82.84a8.89,8.89,0,0,1-.06,15.4L296,191.71a8.89,8.89,0,0,0,0,15.45,8.89,8.89,0,0,1,.13,15.38l-48.9,28.85a8.89,8.89,0,0,1-8.83.11l-18.23-10.13a8.88,8.88,0,0,0-8.59,0q-12.93,7.1-25.81,14.28c-4.54,2.53-9.22,4.93-13.62,7.68-5,3.11-11.58,3.58-17.17,1.91-3.45-1-6.57-3.18-9.68-5L136.18,255Q125.07,248.68,114,242.3L88.61,227.7l-26-15-24.25-14-20-11.56-4.2-2.43a8.88,8.88,0,0,1,0-15.38l197-113.78A8.89,8.89,0,0,1,220.08,55.53Z" transform="translate(-9.68 -9.78)"/><path class="cls-6" d="M220.45,66.59v10c0,.16-.21.3-.47.3s-.47-.13-.47-.3v-10h.95" transform="translate(-9.68 -9.78)"/><path class="cls-3" d="M219.94,66.59V76.85c-.24,0-.44-.14-.44-.3v-10Z" transform="translate(-9.68 -9.78)"/><ellipse class="cls-3" cx="210.3" cy="56.82" rx="0.47" ry="0.3"/><path class="cls-6" d="M217.27,67l3.1,6.41c.07.15-.07.36-.31.46s-.49.07-.55-.08l-3.1-6.41.87-.38" transform="translate(-9.68 -9.78)"/><path class="cls-3" d="M216.8,67.16,220,73.84c-.23.09-.46,0-.52-.1l-3.1-6.41Z" transform="translate(-9.68 -9.78)"/><ellipse class="cls-3" cx="216.84" cy="67.15" rx="0.47" ry="0.3" transform="translate(-18.33 83.46) rotate(-23.8)"/><path class="cls-6" d="M221,67.18l-1.41,3.59c-.07.15.07.36.31.46s.49.07.55-.08l1.41-3.59-.87-.38" transform="translate(-9.68 -9.78)"/><path class="cls-3" d="M221.46,67.39l-1.53,3.86c.23.09.46,0,.52-.1l1.41-3.59Z" transform="translate(-9.68 -9.78)"/><ellipse class="cls-3" cx="221.43" cy="67.38" rx="0.3" ry="0.47" transform="translate(60.71 232.98) rotate(-66.19)"/><path class="cls-7" d="M212.8,60.58v.07c0,.07,0,.14,0,.2h0a9.22,9.22,0,0,0,.34,1.79h0a6.43,6.43,0,0,0,.33.88q.1.21.22.43l0,.07h0q0,.11,0,.21v.07s0,.09,0,.13,0,.07,0,.1,0,.08,0,.12,0,.07,0,.1,0,.08,0,.12V65l0,.13,0,.1,0,.12,0,.1,0,.15,0,.06h0v0l.08.17,0,.07.09.15,0,.06.1.14,0,.06.08.1.08.1,0,0,.14.15,0,0,.13.14.09.09,0,0a.81.81,0,0,0,.12.15l0,0,0,0,0,0,0,0,0,0,.06,0,0,0h0l.06,0,0,0,.1,0h0a4.25,4.25,0,0,0,.44.17h0l.09,0,.16,0h0l.55.15h0l.12,0h0l.11,0h.05l.68.11.27,0,.3,0,.45,0,.26,0,.74,0H220c.28,0,.69,0,1.16,0h0l.58-.06h.09l.28,0h0l.14,0h0l.11,0h0l.13,0h.08l.23-.05h0l.13,0,.16,0,.18-.05.13,0,.17-.06.14,0H224l.1,0,.08,0,.07,0,.11,0,0,0,.14-.07h0l.12-.07,0,0,.12-.08h0l.07-.06h0l.07-.07h0L225,67l0,0,.06-.06a5.05,5.05,0,0,0,.63-.73l0,0,.06-.09.08-.13,0-.06.09-.19h0a2.41,2.41,0,0,0,.16-.73,4.68,4.68,0,0,0,0-.87h0l.11-.21.08-.16.1-.22,0-.07a6.43,6.43,0,0,0,.23-.61l0-.09v0l0-.12.08-.3v0a9.42,9.42,0,0,0,.22-1.35h0c0-.07,0-.13,0-.2s0-.13,0-.2v-.09c0-.06,0-.13,0-.19s0-.08,0-.12,0-.14,0-.2v-.07c0-.4,0-.76,0-1v-.28l0-.19,0-.14,0-.07a4,4,0,0,0-.19-.6l-.08-.19,0,0-.08-.15,0-.07,0-.09-.06-.1,0-.05-.1-.15h0l-.11-.15,0,0,0-.06v-.06l0-.14h0l.11-.2.09-.18.1-.21,0-.06.13-.32h0l.11-.31,0-.12.05-.18.06-.25V54.3a9.78,9.78,0,0,0,.22-1.57v-.21c0-.23,0-.43,0-.58s0-.56,0-.82h0c0-.16,0-.31,0-.46v-.07c0-.13,0-.26-.08-.38l0-.07v0c0-.07-.05-.17-.1-.29l0-.07-.12-.27-.06-.11-.07-.14-.08-.14-.05-.08-.11-.16-.06-.08-.16-.21h0l0,0,0-.11,0-.07q0-.15.07-.3l0-.08q0-.19.06-.38v0c0-.14,0-.28,0-.42v0a4.25,4.25,0,0,0,0-.44v-.16l0-.16v-.06l0-.17V45.9l0-.17v-.28l0-.08h0l0-.1,0-.14h0l0-.06c0-.12-.1-.31-.2-.58l-.06-.15h0l-.24-.62-.13-.34-.17-.45a3.38,3.38,0,0,0-.14-.33l0,0-.07-.12-.05-.08,0-.06,0,0a2.79,2.79,0,0,0-.28-.35l0,0-.07-.07-.21-.18,0,0-.06,0,0,0-.13-.09-.11-.07-.18-.1h0l-.19-.09,0,0h0l-.09,0-.47-.16h0l-.12,0-.48-.11-.69-.11h-.16l-.47,0h0l-.48,0H220c-.3,0-.62,0-.93,0h0l-.27,0-.18,0h-.09l-.49.06h0l-.21,0h0l-.3.06h0l-.21,0-.15,0-.11,0h0l-.11,0-.05,0-.14,0-.13,0h0a4,4,0,0,0-.51.24,3.39,3.39,0,0,0-.36.24h0l-.05,0-.06.05-.09.08-.1.1,0,0,0,0,0,0-.08.09-.06.07,0,.06,0,0,0,0-.07.11a2.46,2.46,0,0,0-.17.29h0l-.07.14-.07.17,0,.07-.22.58v0l-.16.4-.12.32v0l0,.06,0,.06,0,.07,0,.08v0l0,0v0l0,.08v0l-.09.28h0v0h0l0,.06,0,.07,0,.09,0,.18v0c0,.16,0,.3-.06.39l0,.13v0c0,.34-.06.57-.06.78,0,0,0,0,0,.08s0,.07,0,.1,0,0,0,0h0c0,.07,0,.14,0,.21v.28l0,.18v0l0,.17v0l0,.14,0,.17v0l0,.11v0l0,0h0l-.15.2-.06.08-.14.2,0,0-.11.18,0,.06-.06.12-.06.13,0,0a4.29,4.29,0,0,0-.17.47h0l0,.19v0a4.8,4.8,0,0,0-.11.81v.1c0,.23,0,.47,0,.74,0,.06,0,.13,0,.2s0,.28,0,.45v.16a10.16,10.16,0,0,0,.23,1.57h0c0,.17.09.33.13.48l0,.06a6.74,6.74,0,0,0,.35.91l0,.07.19.36h0l0,.14v.06l-.07.09-.08.11-.05.07-.08.12,0,0-.07.11,0,.05,0,.08,0,.08,0,0c-.06.11-.1.21-.13.29a3.86,3.86,0,0,0-.17.52,4.5,4.5,0,0,0-.12.75h0s0,.1,0,.16h0c0,.16,0,.37,0,.59S212.77,60.25,212.8,60.58Zm3.31,7.1h0Zm5.76.44h0Zm-3.19.06h0ZM217.33,68l.11,0ZM216,67.66h0Z" transform="translate(-9.68 -9.78)"/><g class="cls-8"><path class="cls-9" d="M222.46,68h-.11Z" transform="translate(-9.68 -9.78)"/><path class="cls-9" d="M216.09,67.69h0Z" transform="translate(-9.68 -9.78)"/><path class="cls-9" d="M218.66,68.19h0Z" transform="translate(-9.68 -9.78)"/><path class="cls-9" d="M218.52,68.18h0Z" transform="translate(-9.68 -9.78)"/><path class="cls-9" d="M214.62,59.81A14.32,14.32,0,0,1,213.32,57l0,0,0,.08,0,.08,0,0c-.06.11-.1.21-.13.29a3.86,3.86,0,0,0-.17.52,4.5,4.5,0,0,0-.12.75h0s0,.1,0,.16h0c0,.16,0,.37,0,.59s0,.69,0,1v.07c0,.07,0,.14,0,.2h0a9.22,9.22,0,0,0,.34,1.79h0a6.43,6.43,0,0,0,.33.88q.1.21.22.43l0,.07h0q0,.11,0,.21v.07s0,.09,0,.13,0,.07,0,.1,0,.08,0,.12,0,.07,0,.1,0,.08,0,.12V65l0,.13,0,.1,0,.12,0,.1,0,.15,0,.06h0v0l.08.17,0,.07.09.15,0,.06.1.14,0,.06.08.1.08.1,0,0,.14.15,0,0,.13.14.09.09,0,0a.81.81,0,0,0,.12.15l0,0,0,0,0,0,0,0,0,0,.06,0,0,0h0l.06,0,0,0,.1,0h0a4.24,4.24,0,0,0,.44.17h0l.09,0,.16,0h0l.55.15h0l.12,0h0l.11,0h.05l.68.11.27,0,.3,0h.18l.28,0,.26,0,.74,0H220c.28,0,.69,0,1.16,0h0l.58-.06h.09l.28,0h0l.14,0h0l.11,0h0l.13,0h.08l.23-.05h0l.13,0,.16,0,.18-.05.13,0,.17-.06.14,0h.07l.1,0,.08,0,.07,0,.11,0,0,0,.14-.07h0l.12-.07,0,0,.12-.08h0l.07-.06h0l.07-.07h0L225,67l0,0,.06-.06h0a21.66,21.66,0,0,1-3.41-1.16A15.54,15.54,0,0,1,214.62,59.81Zm7.22,8.31h0ZM217.32,68l.11,0Zm-1.24-.34h0Z" transform="translate(-9.68 -9.78)"/></g><path class="cls-6" d="M203,73.58v10c0,.16-.21.3-.47.3s-.47-.13-.47-.3v-10H203" transform="translate(-9.68 -9.78)"/><path class="cls-3" d="M202.47,73.58V83.84c-.24,0-.44-.14-.44-.3v-10Z" transform="translate(-9.68 -9.78)"/><ellipse class="cls-3" cx="192.83" cy="63.8" rx="0.47" ry="0.3"/><path class="cls-6" d="M199.81,73.94l3.1,6.41c.07.15-.07.36-.31.46s-.49.07-.55-.08l-3.1-6.41.87-.38" transform="translate(-9.68 -9.78)"/><path class="cls-3" d="M199.34,74.15l3.22,6.68c-.23.09-.46,0-.52-.1l-3.1-6.41Z" transform="translate(-9.68 -9.78)"/><ellipse class="cls-3" cx="199.37" cy="74.13" rx="0.47" ry="0.3" transform="translate(-22.64 77.01) rotate(-23.81)"/><path class="cls-6" d="M203.53,74.17l-1.41,3.59c-.07.15.07.36.31.46s.49.07.55-.08l1.41-3.59-.87-.38" transform="translate(-9.68 -9.78)"/><path class="cls-3" d="M204,74.38l-1.53,3.86c.23.09.46,0,.52-.1l1.41-3.59Z" transform="translate(-9.68 -9.78)"/><ellipse class="cls-3" cx="203.96" cy="74.36" rx="0.3" ry="0.47" transform="translate(43.91 221.16) rotate(-66.19)"/><path class="cls-7" d="M195.33,67.57v.07c0,.07,0,.14,0,.2h0a9.23,9.23,0,0,0,.34,1.79h0a6.43,6.43,0,0,0,.33.88q.1.21.22.43l0,.07h0l0,.21v.07s0,.09,0,.13,0,.07,0,.1,0,.08,0,.12,0,.07,0,.1,0,.08,0,.12V72l0,.13,0,.1,0,.12,0,.1,0,.15,0,.06h0v0l.08.17,0,.07.09.15,0,.06.1.14,0,.06.08.1.08.1,0,0,.14.15,0,0,.13.14.09.09,0,0a.81.81,0,0,0,.12.15l0,0,0,0,0,0,0,0,0,0,.06,0,0,0h0l.06,0,0,0,.1,0h0a4.25,4.25,0,0,0,.44.17h0l.09,0,.16,0h0l.55.15h0l.12,0h0l.11,0h.05l.68.11.27,0,.3,0,.45,0,.26,0,.74,0h.06c.28,0,.69,0,1.16,0h0l.58-.06h.09l.28,0h0l.14,0h0l.11,0h0l.13,0h.08l.23-.05h0l.13,0,.16,0,.18-.05.13,0,.17-.06.14,0h.07l.1,0,.08,0,.07,0,.11,0,0,0,.14-.07h0l.12-.07,0,0,.12-.08h0l.07-.06h0l.07-.07h0l.06-.08,0,0,.06-.06a5.06,5.06,0,0,0,.63-.73l0,0,.06-.09.08-.13,0-.06.09-.19h0a2.41,2.41,0,0,0,.16-.73,4.68,4.68,0,0,0,0-.87h0l.11-.21.08-.16.1-.22,0-.07a6.46,6.46,0,0,0,.23-.61l0-.09v0l0-.12.08-.3v0a9.44,9.44,0,0,0,.22-1.35h0l0-.2c0-.07,0-.13,0-.2v-.09c0-.06,0-.13,0-.19V67c0-.07,0-.14,0-.2v-.07c0-.4,0-.76,0-1v-.28l0-.19,0-.14,0-.07a4,4,0,0,0-.19-.6l-.08-.19,0,0-.08-.15,0-.07,0-.09-.06-.1,0-.05-.1-.15h0l-.11-.15,0,0,0-.06v-.06l0-.14h0l.11-.2.09-.18.1-.21,0-.06.13-.32h0l.11-.31,0-.12.05-.18.06-.25v-.07a9.81,9.81,0,0,0,.22-1.57V59.5c0-.23,0-.43,0-.58s0-.56,0-.82h0c0-.16,0-.31,0-.46v-.07c0-.13,0-.26-.08-.38l0-.08v0c0-.07-.05-.17-.1-.29l0-.07-.12-.27-.06-.11-.07-.14L209,56,209,56l-.11-.16-.06-.08-.16-.21h0l0,0,0-.11,0-.07q0-.15.07-.3l0-.08q0-.19.06-.38v0c0-.14,0-.28,0-.42v0a4.26,4.26,0,0,0,0-.44v-.16l0-.16v-.06l0-.17v-.17l0-.17v-.28l0-.08h0l0-.1,0-.14h0l0-.06c0-.12-.1-.31-.2-.58l-.06-.15h0l-.24-.62-.13-.34-.17-.45a3.38,3.38,0,0,0-.14-.33l0,0-.07-.12-.05-.08,0-.06,0,0a2.79,2.79,0,0,0-.28-.35l0,0-.07-.07-.21-.18,0,0-.06,0,0,0-.13-.09-.11-.07-.18-.1h0L206,48.1l0,0h0l-.09,0-.47-.16h0l-.12,0-.48-.11-.69-.11h-.16l-.47,0h0l-.48,0h-.42c-.3,0-.62,0-.93,0h0l-.27,0-.18,0h-.09l-.49.06h0l-.21,0h0l-.3.06h0l-.21,0-.15,0-.11,0h0l-.11,0-.05,0-.14,0-.13,0h0a4,4,0,0,0-.51.24,3.39,3.39,0,0,0-.36.24h0l-.05,0-.06.05-.09.08-.1.1,0,0,0,0,0,0-.08.09-.06.07,0,.06,0,0,0,0-.07.11a2.47,2.47,0,0,0-.17.29h0l-.07.14-.07.17,0,.07-.22.58v0l-.16.4-.12.32v0l0,.06,0,.06,0,.07,0,.08v0l0,0v0l0,.08v0l-.09.28h0v0h0l0,.06,0,.07,0,.09,0,.18v0c0,.16,0,.3-.06.39l0,.13v0c0,.34-.06.57-.06.78,0,0,0,0,0,.08s0,.07,0,.1,0,0,0,0h0c0,.07,0,.14,0,.21v.28l0,.18v0l0,.17v0l0,.14,0,.17v0l0,.11v0l0,0h0l-.15.2-.06.08-.14.2,0,0-.11.18,0,.06-.06.12-.06.13,0,0a4.25,4.25,0,0,0-.17.47h0l0,.19v0a4.8,4.8,0,0,0-.11.81v.1c0,.23,0,.47,0,.74,0,.06,0,.13,0,.2s0,.28,0,.45v.16a10.17,10.17,0,0,0,.23,1.57h0c0,.17.09.33.13.48l0,.06a6.74,6.74,0,0,0,.35.91l0,.07.19.36h0l0,.14v.06l-.07.09-.08.11-.05.07-.08.12,0,0-.07.11,0,.05,0,.08,0,.08,0,0c-.06.11-.1.21-.13.29a3.87,3.87,0,0,0-.17.52,4.5,4.5,0,0,0-.12.75h0s0,.1,0,.16h0c0,.16,0,.37,0,.59S195.31,67.23,195.33,67.57Zm3.31,7.1h0Zm5.76.44h0Zm-3.19.06h0ZM199.87,75l.11,0Zm-1.37-.36h0Z" transform="translate(-9.68 -9.78)"/><path class="cls-10" d="M205,75h-.11Z" transform="translate(-9.68 -9.78)"/><path class="cls-10" d="M198.63,74.67h0Z" transform="translate(-9.68 -9.78)"/><path class="cls-10" d="M201.2,75.18h0Z" transform="translate(-9.68 -9.78)"/><path class="cls-10" d="M201.06,75.17h0Z" transform="translate(-9.68 -9.78)"/><path class="cls-10" d="M197.16,66.8A14.31,14.31,0,0,1,195.85,64l0,0,0,.08,0,.08,0,0c-.06.11-.1.21-.13.29a3.87,3.87,0,0,0-.17.52,4.5,4.5,0,0,0-.12.75h0s0,.1,0,.16h0c0,.16,0,.37,0,.59s0,.69,0,1v.07c0,.07,0,.14,0,.2h0a9.23,9.23,0,0,0,.34,1.79h0a6.44,6.44,0,0,0,.33.88q.1.21.22.43l0,.07h0q0,.11,0,.21v.07s0,.09,0,.13v.1s0,.08,0,.12,0,.07,0,.1,0,.08,0,.12V72l0,.13,0,.1,0,.12,0,.1,0,.15,0,.06h0v0l.08.17,0,.07.09.15,0,.06.1.14,0,.06.08.1.08.1,0,0,.14.15,0,0,.13.14.09.09,0,0a.81.81,0,0,0,.12.15l0,0,0,0,0,0,0,0,0,0,.06,0,0,0h0l.06,0,0,0,.1,0h0a4.25,4.25,0,0,0,.44.17h0l.09,0,.16,0h0l.55.15h0l.12,0h0l.11,0h.05l.68.11.27,0,.3,0h.18l.28,0,.26,0,.74,0h.06c.28,0,.69,0,1.16,0h0l.58-.06h.09l.28,0h0l.14,0h0l.11,0h0l.13,0h.08l.23-.05h0l.13,0,.16,0,.18-.05.13,0,.17-.06.14,0h.07l.1,0,.08,0,.07,0,.11,0,0,0,.14-.07h0l.12-.07,0,0,.12-.08h0l.07-.06h0l.07-.07h0l.06-.08,0,0,.06-.06h0a21.66,21.66,0,0,1-3.41-1.16A15.54,15.54,0,0,1,197.16,66.8Zm7.22,8.31h0ZM199.85,75l.11,0Zm-1.24-.34h0Z" transform="translate(-9.68 -9.78)"/><path class="cls-2" d="M113.55,59.61H30.26c0-1.84,1.87-3.92,3.55-4.68a9.13,9.13,0,0,1,5.43-.4,3.17,3.17,0,0,0,1.53.06A3.06,3.06,0,0,0,42,53.66a26.9,26.9,0,0,1,33.16-4.73c2.42,1.42,4.61,3.21,7,4.7a4.43,4.43,0,0,0,1.66.72,4.79,4.79,0,0,0,2.67-.68c4-1.91,8.79-3.8,12.67-1.65a30.73,30.73,0,0,0,3.35,2.08c1.67.66,3.54.34,5.32.08s3.71-.43,5.26.47S114.85,58.38,113.55,59.61Z" transform="translate(-9.68 -9.78)"/><ellipse class="cls-9" cx="186.19" cy="276.17" rx="5.49" ry="2.75"/><polygon class="cls-11" points="177.73 156.16 177.96 108.08 95.07 154.86 94.84 203.3 177.73 156.16"/><polygon class="cls-12" points="95.07 154.86 37.48 121.99 37.25 169.53 94.84 203.3 95.07 154.86"/><polygon class="cls-13" points="177.96 108.08 152.36 75.36 119.77 75.2 37.48 121.99 95.07 154.86 177.96 108.08"/><polygon class="cls-14" points="95.07 154.86 70.14 121.42 37.48 121.99 95.07 154.86"/><polygon class="cls-15" points="70.14 121.42 152.36 75.36 119.77 75.2 37.48 121.99 70.14 121.42"/><polygon class="cls-11" points="68.08 124.06 74.87 137 58.52 128.39 68.08 124.06"/><polygon class="cls-16" points="136.64 179.46 136.88 131.2 128.57 135.93 128.83 174.56 136.64 179.46"/><polygon class="cls-17" points="128.83 174.56 94.79 194.3 94.84 203.3 136.64 179.46 128.83 174.56"/><polygon class="cls-16" points="120.8 179.39 120.93 151.02 104.14 160.4 104 188.94 120.8 179.39"/><polygon class="cls-18" points="171.56 147.18 164.05 151.49 164 125.92 171.68 121.34 171.56 147.18"/><g class="cls-8"><polygon class="cls-14" points="168.19 145.82 168.29 123.32 171.68 121.34 171.56 147.18 164.05 151.49 164.02 148.17 168.19 145.82"/></g><polygon class="cls-18" points="158.56 154.42 141.73 164.21 141.67 138.65 158.68 128.57 158.56 154.42"/><g class="cls-8"><polygon class="cls-14" points="155.19 153.05 155.29 130.55 158.68 128.57 158.56 154.42 141.73 164.21 141.69 160.89 155.19 153.05"/></g><polygon class="cls-18" points="87.39 159.78 87.34 170.22 45.86 146.52 45.91 136.35 87.39 159.78"/><g class="cls-8"><polygon class="cls-19" points="49.65 138.46 49.62 145.16 87.36 166.8 87.34 170.22 45.86 146.52 45.91 136.35 49.65 138.46"/></g><polygon class="cls-18" points="87.32 174.9 87.27 185.35 45.78 161.65 45.83 151.47 87.32 174.9"/><g class="cls-8"><polygon class="cls-19" points="49.57 153.59 49.54 160.28 87.29 181.93 87.27 185.35 45.78 161.65 45.83 151.47 49.57 153.59"/></g><g class="cls-8"><polygon class="cls-20" points="120.93 151.02 120.8 179.39 114.86 182.77 114.99 154.34 120.93 151.02"/></g><polygon class="cls-11" points="308.47 138.12 308.7 90.03 225.82 136.82 225.59 185.26 308.47 138.12"/><polygon class="cls-12" points="225.82 136.82 168.23 103.94 168 151.49 225.59 185.26 225.82 136.82"/><polygon class="cls-13" points="308.7 90.03 283.11 57.31 250.51 57.16 168.23 103.94 225.82 136.82 308.7 90.03"/><polygon class="cls-14" points="225.82 136.82 200.88 103.38 168.23 103.94 225.82 136.82"/><polygon class="cls-15" points="200.88 103.38 283.11 57.31 250.51 57.16 168.23 103.94 200.88 103.38"/><polygon class="cls-11" points="198.83 106.01 205.61 118.95 189.27 110.35 198.83 106.01"/><polygon class="cls-14" points="267.39 161.42 267.62 113.16 259.31 117.89 259.58 156.52 267.39 161.42"/><polygon class="cls-6" points="259.58 156.52 225.54 176.26 225.59 185.26 267.39 161.42 259.58 156.52"/><polygon class="cls-6" points="251.54 161.34 251.68 132.98 234.88 142.35 234.75 170.9 251.54 161.34"/><polygon class="cls-18" points="302.3 129.14 294.8 133.44 294.75 107.88 302.43 103.3 302.3 129.14"/><g class="cls-8"><polygon class="cls-14" points="298.93 127.77 299.04 105.28 302.43 103.3 302.3 129.14 294.8 133.44 294.76 130.13 298.93 127.77"/></g><polygon class="cls-18" points="289.3 136.37 272.48 146.17 272.42 120.6 289.43 110.53 289.3 136.37"/><g class="cls-8"><polygon class="cls-14" points="285.93 135 286.04 112.51 289.43 110.53 289.3 136.37 272.48 146.17 272.44 142.85 285.93 135"/></g><polygon class="cls-18" points="218.14 141.73 218.09 152.18 176.6 128.48 176.65 118.3 218.14 141.73"/><g class="cls-8"><polygon class="cls-19" points="180.39 120.42 180.36 127.11 218.11 148.76 218.09 152.18 176.6 128.48 176.65 118.3 180.39 120.42"/></g><polygon class="cls-18" points="218.07 156.86 218.02 167.31 176.53 143.6 176.58 133.43 218.07 156.86"/><g class="cls-8"><polygon class="cls-19" points="180.32 135.54 180.29 142.24 218.03 163.88 218.02 167.31 176.53 143.6 176.58 133.43 180.32 135.54"/></g><g class="cls-8"><polygon class="cls-20" points="251.68 132.98 251.54 161.34 245.6 164.72 245.74 136.3 251.68 132.98"/></g><g class="cls-8"><path class="cls-21" d="M177.68,161l.23-47.25L234.43,146A111.19,111.19,0,0,0,177.68,161Z" transform="translate(-9.68 -9.78)"/></g><polygon class="cls-12" points="95.08 143.57 94.79 203.19 143.72 232.43 144.01 171.82 95.08 143.57"/><polygon class="cls-11" points="143.44 232.43 143.73 171.82 225.91 125.31 225.62 185.42 143.44 232.43"/><polygon class="cls-22" points="149.96 223.35 150.16 168.27 155.11 165.46 154.82 220.54 149.96 223.35"/><polygon class="cls-6" points="94.47 198.25 143.74 226.97 225.61 180.39 225.62 185.42 143.44 232.43 94.51 203.19 94.47 198.25"/><polygon class="cls-12" points="155.03 188.39 155.14 165.43 214.8 131.77 214.69 154.21 155.03 188.39"/><polygon class="cls-18" points="209.73 152.42 196.18 160.16 196.05 148.68 209.79 140.66 209.73 152.42"/><g class="cls-8"><polygon class="cls-23" points="206.27 151.02 206.31 142.7 209.79 140.66 209.73 152.42 196.18 160.16 196.14 156.74 206.27 151.02"/></g><polygon class="cls-18" points="175.86 208.73 168.15 213.15 168.09 186.87 175.98 182.16 175.86 208.73"/><g class="cls-8"><polygon class="cls-19" points="172.39 207.32 172.5 184.19 175.98 182.16 175.86 208.73 168.15 213.15 168.11 209.74 172.39 207.32"/></g><polygon class="cls-18" points="165.15 214.91 157.44 219.33 157.38 193.05 165.28 188.34 165.15 214.91"/><g class="cls-8"><polygon class="cls-19" points="161.69 213.5 161.8 190.37 165.28 188.34 165.15 214.91 157.44 219.33 157.4 215.92 161.69 213.5"/></g><polygon class="cls-18" points="212.89 187.99 205.18 192.41 205.12 166.13 213.02 161.42 212.89 187.99"/><g class="cls-8"><polygon class="cls-19" points="209.43 186.58 209.54 163.45 213.02 161.42 212.89 187.99 205.18 192.41 205.14 189 209.43 186.58"/></g><polygon class="cls-18" points="202.19 194.17 194.47 198.59 194.42 172.31 202.31 167.6 202.19 194.17"/><g class="cls-8"><polygon class="cls-19" points="198.72 192.76 198.83 169.63 202.31 167.6 202.19 194.17 194.47 198.59 194.44 195.18 198.72 192.76"/></g><polygon class="cls-18" points="191.45 162.52 177.89 170.25 177.76 158.78 191.5 150.76 191.45 162.52"/><g class="cls-8"><polygon class="cls-23" points="187.98 161.11 188.02 152.79 191.5 150.76 191.45 162.52 177.89 170.25 177.85 166.84 187.98 161.11"/></g><polygon class="cls-18" points="173.16 172.61 159.6 180.34 159.48 168.87 173.22 160.86 173.16 172.61"/><g class="cls-8"><polygon class="cls-23" points="169.7 171.21 169.74 162.89 173.22 160.86 173.16 172.61 159.6 180.34 159.57 176.93 169.7 171.21"/></g><polygon class="cls-13" points="219.01 129.35 218.74 184.25 214.53 186.82 214.8 131.77 219.01 129.35"/><polygon class="cls-6" points="192.29 204.49 192.51 179.59 178.89 186.99 178.77 212.23 192.29 204.49"/><polygon class="cls-14" points="192.51 179.59 192.29 204.49 188.33 206.75 188.45 181.79 192.51 179.59"/><polyline class="cls-6" points="144 171.92 94.8 143.57 174.46 94.83 225.91 125.31"/><polygon class="cls-18" points="137.78 175.62 137.74 185 104.5 166.33 104.55 156.7 137.78 175.62"/><g class="cls-8"><polygon class="cls-19" points="108.33 158.85 108.3 165.3 137.75 181.37 137.74 185 104.5 166.33 104.55 156.7 108.33 158.85"/></g><polygon class="cls-18" points="137.69 194.88 137.65 204.26 104.41 185.58 104.45 175.95 137.69 194.88"/><g class="cls-8"><polygon class="cls-19" points="108.24 178.11 108.21 184.55 137.66 200.63 137.65 204.26 104.41 185.58 104.45 175.95 108.24 178.11"/></g><polygon class="cls-11" points="210.73 124.25 210.91 86.98 145.19 124.19 145.01 161.58 210.73 124.25"/><polygon class="cls-12" points="145.19 124.19 113.19 105.15 112.81 143.36 145.01 161.58 145.19 124.19"/><polygon class="cls-6" points="210.91 86.98 177.55 68.43 113.19 105.15 145.19 124.19 210.91 86.98"/><polygon class="cls-24" points="193.87 87.64 145.73 115.05 130.22 105.48 178.37 77.81 193.87 87.64"/><polygon class="cls-25" points="178.37 77.81 193.87 87.64 190.6 89.56 177.76 81.39 133.29 107.37 130.22 105.48 178.37 77.81"/><polygon class="cls-18" points="165.34 144.25 157.62 148.67 157.57 122.39 165.46 117.68 165.34 144.25"/><g class="cls-8"><polygon class="cls-19" points="161.87 142.84 161.98 119.71 165.46 117.68 165.34 144.25 157.62 148.67 157.59 145.26 161.87 142.84"/></g><polygon class="cls-18" points="200.23 125.34 192.52 129.77 192.47 103.48 200.36 98.78 200.23 125.34"/><g class="cls-8"><polygon class="cls-19" points="196.77 123.94 196.88 100.81 200.36 98.78 200.23 125.34 192.52 129.77 192.48 126.36 196.77 123.94"/></g><polygon class="cls-18" points="188.6 131.65 180.89 136.07 180.83 109.79 188.73 105.08 188.6 131.65"/><g class="cls-8"><polygon class="cls-19" points="185.14 130.24 185.25 107.11 188.73 105.08 188.6 131.65 180.89 136.07 180.85 132.66 185.14 130.24"/></g><polygon class="cls-18" points="176.97 137.95 169.26 142.37 169.2 116.09 177.1 111.38 176.97 137.95"/><g class="cls-8"><polygon class="cls-19" points="173.5 136.54 173.62 113.41 177.1 111.38 176.97 137.95 169.26 142.37 169.22 138.96 173.5 136.54"/></g><polygon class="cls-18" points="137.27 127.97 137.2 142.66 117.94 131.58 118.01 116.71 137.27 127.97"/><g class="cls-8"><polygon class="cls-19" points="121.95 119.01 121.9 129.44 137.22 138.18 137.2 142.66 117.94 131.58 118.01 116.71 121.95 119.01"/></g><g class="cls-8"><path class="cls-21" d="M124.56,149.69c-.72.66-1.41,1.36-2.07,2.08l.37-36.84,32,19v0a125.94,125.94,0,0,0-21.17,9.41A48.76,48.76,0,0,0,124.56,149.69Z" transform="translate(-9.68 -9.78)"/></g><g class="cls-8"><path class="cls-21" d="M116.86,196.73a66.83,66.83,0,0,0-7.86,8.76c-1.6,2.07-3.13,4.21-4.53,6.43l.28-58.56,48,27.71a110,110,0,0,0-16.22,4.31A58.5,58.5,0,0,0,116.86,196.73Z" transform="translate(-9.68 -9.78)"/></g><path class="cls-6" d="M345.38,138.29v11.1c0,.18-.24.33-.53.33s-.53-.15-.53-.33v-11.1h1.06" transform="translate(-9.68 -9.78)"/><path class="cls-3" d="M344.81,138.29v11.43c-.27,0-.49-.16-.49-.33v-11.1Z" transform="translate(-9.68 -9.78)"/><ellipse class="cls-3" cx="335.17" cy="128.52" rx="0.53" ry="0.33"/><path class="cls-6" d="M341.84,138.7l3.45,7.14c.07.17-.08.4-.35.52s-.54.08-.62-.09l-3.45-7.14,1-.43" transform="translate(-9.68 -9.78)"/><path class="cls-3" d="M341.31,138.93l3.59,7.44c-.25.1-.51.05-.58-.11l-3.45-7.14Z" transform="translate(-9.68 -9.78)"/><ellipse class="cls-3" cx="341.35" cy="138.91" rx="0.53" ry="0.33" transform="translate(-36.7 139.83) rotate(-23.81)"/><path class="cls-6" d="M346,139l-1.57,4c-.07.17.08.4.35.52s.54.08.62-.09l1.57-4-1-.43" transform="translate(-9.68 -9.78)"/><path class="cls-3" d="M346.51,139.18l-1.71,4.3c.25.1.51.05.58-.11l1.57-4Z" transform="translate(-9.68 -9.78)"/><ellipse class="cls-3" cx="346.47" cy="139.17" rx="0.33" ry="0.53" transform="translate(69.6 390.19) rotate(-66.19)"/><path class="cls-7" d="M336.85,131.6v.08c0,.08,0,.15,0,.23h0a10.28,10.28,0,0,0,.38,2h0a7.19,7.19,0,0,0,.37,1q.11.24.24.48l0,.08h0q0,.12,0,.23v.07s0,.1,0,.15,0,.07,0,.11,0,.09,0,.13,0,.08,0,.11,0,.09,0,.14v.11l0,.14,0,.11,0,.13,0,.11.06.17,0,.06h0l0,0,.09.19,0,.08.1.16,0,.06.11.16,0,.06.09.11.09.11,0,0,.15.17,0,0,.15.15.1.1,0,0a.9.9,0,0,0,.14.16l0,0,0,0,0,0,0,0,.06,0,.06,0,0,0h0l.07,0,0,0,.11.05h0a4.72,4.72,0,0,0,.49.19h0l.1,0,.18.06h0l.61.16h.05l.13,0h0l.13,0h.06c.2,0,.46.09.76.13l.3,0,.33,0,.51,0,.29,0,.83,0h.07c.31,0,.77,0,1.29-.05h0l.65-.07H347l.31,0h.05l.15,0h0l.12,0h0l.14,0h.08l.26-.06h.05l.14,0,.18,0,.2-.06.14,0,.19-.06.15,0h.08l.11,0,.08,0,.08,0,.12-.05,0,0,.16-.08h0l.13-.08,0,0,.13-.09h0l.07-.06h0l.07-.08h0l.07-.09,0,0,.07-.07a5.63,5.63,0,0,0,.7-.82l0-.05.06-.1.08-.15,0-.06.1-.21v0h0a2.69,2.69,0,0,0,.18-.81,5.21,5.21,0,0,0,0-1h0l.13-.24L352,135l.11-.25,0-.08a7.17,7.17,0,0,0,.25-.68l0-.1v0l0-.13.09-.33v0a10.5,10.5,0,0,0,.24-1.5h0c0-.07,0-.15,0-.22s0-.15,0-.22v-.1c0-.07,0-.14,0-.22s0-.09,0-.13,0-.15,0-.23v-.08c0-.44,0-.84,0-1.09v-.32l0-.21,0-.16,0-.08a4.42,4.42,0,0,0-.21-.66l-.09-.21,0,0-.09-.17,0-.07-.05-.1-.07-.11,0-.06-.12-.17h0l-.13-.17,0,0-.06-.07v-.06l0-.15h0l.12-.23.1-.2.11-.23,0-.07.14-.36h0l.12-.34,0-.14.06-.2.07-.28v-.07a10.91,10.91,0,0,0,.25-1.75v-.24c0-.26,0-.48,0-.65,0-.33,0-.63,0-.91v0h0c0-.18,0-.35-.05-.51v-.08c0-.14-.05-.29-.09-.43l0-.08v0c0-.07-.06-.19-.11-.32l0-.08c0-.09-.08-.19-.13-.3l-.06-.12-.08-.15-.09-.15-.06-.09-.12-.17-.06-.08-.18-.23h0l0,0,0-.12,0-.07q0-.17.07-.33l0-.09q0-.22.06-.42v0c0-.16,0-.31,0-.47v0a4.76,4.76,0,0,0,0-.5v-.18l0-.18v-.07l0-.19v-.19l0-.19v-.32l0-.08h0l0-.12,0-.16h0l0-.06c0-.13-.11-.35-.22-.65l-.06-.17h0l-.26-.69-.15-.38-.19-.5a3.79,3.79,0,0,0-.16-.37l0-.05-.07-.14-.06-.09,0-.07,0,0a3.11,3.11,0,0,0-.31-.39l0,0-.08-.08-.23-.2,0,0-.06,0,0,0-.15-.1-.12-.07L349,110l0,0-.22-.1,0,0h0l-.1,0-.52-.18h0l-.13,0-.53-.12c-.26-.05-.52-.09-.77-.12h-.18l-.53,0h0l-.54,0h-.47c-.33,0-.69,0-1,0h0l-.3,0-.2,0h-.1l-.54.07h-.05l-.23,0h0l-.33.07h0l-.23.05-.16,0-.12,0h0l-.12,0-.06,0-.15.05-.15.05,0,0h0a4.5,4.5,0,0,0-.57.27,3.77,3.77,0,0,0-.4.26h0l-.06,0-.07.06-.1.09-.11.11,0,0,0,0,0,0-.09.1-.06.08,0,.06,0,0,0,.05-.08.12a2.76,2.76,0,0,0-.18.32h0l-.07.16-.07.18,0,.08-.24.64v0l-.17.45-.13.35v0l0,.07,0,.07,0,.08,0,.08v0l0,0v0l0,.09v0l-.1.31h0v.05l0,.07,0,.08,0,.1,0,.2v0c0,.17-.05.33-.07.44l0,.15v0c0,.37-.06.63-.07.86,0,0,0,.05,0,.08s0,.08,0,.12,0,0,0,0h0c0,.08,0,.15,0,.23v.32l0,.2v0l0,.19v0l0,.16,0,.19v0l0,.13v0l0,0h0l-.17.22-.07.09-.15.23,0,0-.12.2,0,.06-.07.14-.07.15,0,0a4.78,4.78,0,0,0-.19.53h0l-.05.21v0a5.35,5.35,0,0,0-.12.91v.11c0,.26,0,.53,0,.82,0,.07,0,.14,0,.22s0,.31,0,.5v.17a11.33,11.33,0,0,0,.26,1.75h0c0,.19.1.37.15.54l0,.07a7.51,7.51,0,0,0,.39,1l0,.08.21.4h0l0,.15V127l-.08.1-.09.12-.06.08-.09.14,0,.05-.07.12,0,.06,0,.09,0,.09,0,0c-.06.13-.11.24-.14.32a4.31,4.31,0,0,0-.19.58,5,5,0,0,0-.13.84h0c0,.05,0,.12,0,.18v0c0,.18,0,.41,0,.65S336.83,131.22,336.85,131.6Zm3.69,7.91h0ZM347,140h0Zm-3.55.07h0Zm-1.5-.19.12,0Zm-1.53-.4h0Z" transform="translate(-9.68 -9.78)"/><g class="cls-8"><path class="cls-9" d="M347.62,139.9h-.12Z" transform="translate(-9.68 -9.78)"/><path class="cls-9" d="M340.52,139.51h0Z" transform="translate(-9.68 -9.78)"/><path class="cls-9" d="M343.39,140.07h0Z" transform="translate(-9.68 -9.78)"/><path class="cls-9" d="M343.23,140.06h0Z" transform="translate(-9.68 -9.78)"/><path class="cls-10" d="M338.89,130.74a16,16,0,0,1-1.46-3.14l0,0,0,.09,0,.09,0,0c-.06.13-.11.24-.14.32a4.31,4.31,0,0,0-.19.58,5,5,0,0,0-.13.84h0c0,.05,0,.12,0,.18v0c0,.18,0,.41,0,.65s0,.77,0,1.15v.08c0,.08,0,.15,0,.23h0a10.27,10.27,0,0,0,.38,2h0a7.17,7.17,0,0,0,.37,1q.11.24.24.48l0,.08h0q0,.12,0,.23v.07s0,.1,0,.15,0,.07,0,.11,0,.09,0,.13,0,.08,0,.11,0,.09,0,.14v.11l0,.14,0,.11,0,.13,0,.11.06.17,0,.06h0l0,0,.09.19,0,.08.1.16,0,.06.11.16,0,.06.09.11.09.11,0,0,.15.17,0,0,.15.15.1.1,0,0a.9.9,0,0,0,.14.16l0,0,0,0,0,0,0,0,.06,0,.06,0,0,0h0l.07,0,0,0,.11.05h0a4.72,4.72,0,0,0,.49.19h0l.1,0,.18.06h0l.61.16h.05l.13,0h0l.13,0h.06c.2,0,.46.09.76.13l.3,0,.33,0h.2l.31,0,.29,0,.83,0h.07c.31,0,.77,0,1.29-.05h0l.65-.07H347l.31,0h.05l.15,0h0l.12,0h0l.14,0h.08l.26-.06h.05l.14,0,.18,0,.2-.06.14,0,.19-.06.15,0h.08l.11,0,.08,0,.08,0,.12-.05,0,0,.16-.08h0l.13-.08,0,0,.13-.09h0l.07-.06h0l.07-.08h0l.07-.09,0,0,.07-.07h0a24.13,24.13,0,0,1-3.8-1.3A17.32,17.32,0,0,1,338.89,130.74Zm8,9.26h0Zm-5-.12.12,0Zm-1.38-.38h0Z" transform="translate(-9.68 -9.78)"/></g><path class="cls-6" d="M325,150.63v11.1c0,.18-.24.33-.53.33s-.53-.15-.53-.33v-11.1H325" transform="translate(-9.68 -9.78)"/><path class="cls-3" d="M324.48,150.63v11.43c-.27,0-.49-.16-.49-.33v-11.1Z" transform="translate(-9.68 -9.78)"/><ellipse class="cls-3" cx="314.84" cy="140.85" rx="0.53" ry="0.33"/><path class="cls-6" d="M321.5,151l3.45,7.14c.07.17-.08.4-.35.52s-.54.08-.62-.09l-3.45-7.14,1-.43" transform="translate(-9.68 -9.78)"/><path class="cls-3" d="M321,151.26l3.59,7.44c-.25.1-.51.05-.58-.11l-3.45-7.14Z" transform="translate(-9.68 -9.78)"/><ellipse class="cls-3" cx="321.02" cy="151.24" rx="0.53" ry="0.33" transform="translate(-43.41 132.69) rotate(-23.81)"/><path class="cls-6" d="M325.65,151.29l-1.57,4c-.07.17.08.4.35.52s.54.08.62-.09l1.57-4-1-.43" transform="translate(-9.68 -9.78)"/><path class="cls-3" d="M326.18,151.52l-1.71,4.3c.25.1.51.05.58-.11l1.57-4Z" transform="translate(-9.68 -9.78)"/><ellipse class="cls-3" cx="326.14" cy="151.5" rx="0.33" ry="0.53" transform="translate(46.19 378.95) rotate(-66.19)"/><path class="cls-7" d="M316.52,143.93V144c0,.08,0,.15,0,.23h0a10.28,10.28,0,0,0,.38,2h0a7.18,7.18,0,0,0,.37,1q.11.24.24.48l0,.08h0q0,.12,0,.23v.33s0,.09,0,.13,0,.08,0,.11,0,.09,0,.14v.11s0,.09,0,.14l0,.11,0,.13,0,.11.06.17,0,.06h0l0,0,.09.19,0,.08.1.16,0,.06.11.16,0,.06.09.11.09.11,0,0,.15.17,0,0,.15.15.1.1,0,0a.9.9,0,0,0,.14.16l0,0,0,0,0,0,0,0,.06,0,.06,0,0,0h0l.07,0,0,0,.11.05h0a4.75,4.75,0,0,0,.49.19h0l.1,0,.18.06h0l.61.16h.05l.13,0h0l.13,0h.06c.2,0,.46.09.76.13l.3,0,.33,0,.51,0,.29,0,.83,0h.07c.31,0,.77,0,1.29-.05h0l.65-.07h.11l.31,0H327l.15,0h0l.12,0h0l.14,0h.08l.26-.06h.05l.14,0,.18,0,.2-.06.14,0,.19-.06.15,0H329l.11,0,.08,0,.08,0,.12-.05,0,0,.16-.08h0l.13-.08,0,0,.13-.09h0l.07-.06h0l.07-.08h0l.07-.09,0,0,.07-.07a5.63,5.63,0,0,0,.7-.82l0-.05.06-.1.08-.15,0-.06.1-.21v0h0a2.68,2.68,0,0,0,.18-.81,5.22,5.22,0,0,0,0-1h0l.13-.24.09-.17.11-.25,0-.08a7.16,7.16,0,0,0,.25-.68l0-.1v0l0-.13.09-.33v0a10.5,10.5,0,0,0,.24-1.5h0c0-.07,0-.15,0-.22s0-.15,0-.22v-.1c0-.07,0-.14,0-.22s0-.09,0-.13,0-.15,0-.23,0-.06,0-.08c0-.44,0-.84,0-1.09v-.32c0-.07,0-.14,0-.21l0-.16,0-.08a4.41,4.41,0,0,0-.21-.66l-.09-.21,0,0-.09-.17,0-.07-.05-.1-.07-.11,0-.06-.12-.17h0l-.13-.17,0,0-.06-.07v-.06l0-.15h0l.12-.23.1-.2.11-.23,0-.07.14-.36h0l.12-.34,0-.14.06-.2.07-.28v-.07a10.91,10.91,0,0,0,.25-1.75v-.24c0-.26,0-.48,0-.65,0-.33,0-.63,0-.91v0h0c0-.18,0-.35-.05-.51v-.08c0-.14-.05-.29-.09-.43l0-.08v0c0-.07-.06-.19-.11-.32l0-.08c0-.09-.08-.19-.13-.3l-.06-.12-.08-.15-.09-.15-.06-.09-.12-.17-.06-.08-.18-.23h0l0,0,0-.12,0-.07q0-.17.07-.33l0-.09q0-.22.06-.42v0c0-.16,0-.31,0-.47v0a4.73,4.73,0,0,0,0-.5v-.18l0-.18V128l0-.19v-.19l0-.19v-.32l0-.08h0l0-.12,0-.16h0l0-.06c0-.13-.11-.35-.22-.65l-.06-.17h0l-.26-.69-.15-.38-.19-.5a3.76,3.76,0,0,0-.16-.37l0-.05-.07-.14-.06-.09,0-.07,0,0a3.11,3.11,0,0,0-.31-.39l0,0-.08-.08-.23-.2,0,0-.06,0,0,0-.15-.1-.12-.07-.2-.11,0,0-.22-.1,0,0h0l-.1,0-.52-.18h0l-.13,0-.53-.12c-.26-.05-.52-.09-.77-.12h-.18l-.53,0h0l-.54,0h-.47c-.33,0-.69,0-1,0h0l-.3,0-.2,0h-.1l-.55.07h-.05l-.23,0h0l-.33.07h0l-.23.05-.16,0-.12,0h0l-.12,0-.06,0-.15.05-.15.05,0,0h0a4.48,4.48,0,0,0-.57.27,3.78,3.78,0,0,0-.4.26h0l-.06,0-.07.06-.1.09-.11.11,0,0,0,0,0,0-.09.1-.06.08,0,.06,0,0,0,.05-.08.12a2.75,2.75,0,0,0-.18.33h0l-.07.16-.07.18,0,.08-.24.64v0l-.17.45-.13.35v0l0,.07,0,.07,0,.08,0,.08v0l0,0v0l0,.09v0l-.1.31h0v.05l0,.07,0,.08,0,.1,0,.2v0c0,.17-.05.33-.07.44l0,.15v0c0,.37-.06.63-.07.86,0,0,0,.05,0,.08s0,.08,0,.12,0,0,0,0h0c0,.08,0,.15,0,.23v.32l0,.2v0l0,.19v0l0,.16,0,.19v0l0,.13v0l0,0h0l-.17.22-.07.09-.15.23,0,0-.12.2,0,.06-.07.14-.07.15,0,0a4.77,4.77,0,0,0-.19.53h0l-.05.21v0a5.35,5.35,0,0,0-.12.91v.11c0,.26,0,.53,0,.82,0,.07,0,.14,0,.22s0,.32,0,.5v.17a11.33,11.33,0,0,0,.26,1.75h0c0,.19.1.37.15.54l0,.07a7.51,7.51,0,0,0,.39,1l0,.08.21.4h0l0,.15v.07l-.08.1-.09.12-.06.08-.09.14,0,.05-.07.12,0,.06,0,.09,0,.09,0,0c-.06.13-.11.24-.14.32a4.3,4.3,0,0,0-.19.58,5,5,0,0,0-.13.84h0c0,.05,0,.12,0,.18v0c0,.18,0,.41,0,.65S316.49,143.55,316.52,143.93Zm3.69,7.91h0Zm6.42.49h0Zm-3.55.07h0Zm-1.5-.19.12,0Zm-1.53-.4h0Z" transform="translate(-9.68 -9.78)"/><g class="cls-8"><path class="cls-9" d="M327.29,152.23h-.12Z" transform="translate(-9.68 -9.78)"/><path class="cls-9" d="M320.19,151.85h0Z" transform="translate(-9.68 -9.78)"/><path class="cls-9" d="M323.05,152.41h0Z" transform="translate(-9.68 -9.78)"/><path class="cls-9" d="M322.9,152.4h0Z" transform="translate(-9.68 -9.78)"/><path class="cls-10" d="M318.56,143.07a16,16,0,0,1-1.46-3.14l0,0,0,.09,0,.09,0,0c-.06.13-.11.24-.14.32a4.31,4.31,0,0,0-.19.58,5,5,0,0,0-.13.84h0c0,.05,0,.12,0,.18v0c0,.18,0,.41,0,.65s0,.77,0,1.15V144c0,.08,0,.15,0,.23h0a10.28,10.28,0,0,0,.38,2h0a7.18,7.18,0,0,0,.37,1q.11.24.24.48l0,.08h0q0,.12,0,.23v.07s0,.1,0,.15,0,.07,0,.11,0,.09,0,.13,0,.08,0,.11,0,.09,0,.14v.11l0,.14,0,.11,0,.13,0,.11.06.17,0,.06h0l0,0,.09.19,0,.08.1.16,0,.06.11.16,0,.06.09.11.09.11,0,0,.15.17,0,0,.15.15.1.1,0,0a.9.9,0,0,0,.14.16l0,0,0,0,0,0,0,0,.06,0,.06,0,0,0h0l.07,0,0,0,.11.05h0a4.74,4.74,0,0,0,.49.19h0l.1,0,.18.06h0l.61.16h.05l.13,0h0l.13,0h.06c.2,0,.46.09.76.13l.3,0,.33,0h.2l.31,0,.29,0,.83,0h.07c.31,0,.77,0,1.29-.05h0l.65-.07h.11l.31,0H327l.15,0h0l.12,0h0l.14,0h.08l.26-.06h.05l.14,0,.18,0,.2-.06.14,0,.19-.06.15,0h.08l.11,0,.08,0,.08,0,.12-.05,0,0,.16-.08h0l.13-.08,0,0,.13-.09h0l.07-.06h0l.07-.08h0l.07-.09,0,0,.07-.07h0a24.13,24.13,0,0,1-3.8-1.3A17.32,17.32,0,0,1,318.56,143.07Zm8,9.26h0Zm-5-.12.12,0Zm-1.38-.38h0Z" transform="translate(-9.68 -9.78)"/></g><path class="cls-6" d="M304.71,163v11.1c0,.18-.24.33-.53.33s-.53-.15-.53-.33V163h1.06" transform="translate(-9.68 -9.78)"/><path class="cls-3" d="M304.14,163v11.43c-.27,0-.49-.16-.49-.33V163Z" transform="translate(-9.68 -9.78)"/><ellipse class="cls-3" cx="294.51" cy="153.18" rx="0.53" ry="0.33"/><path class="cls-6" d="M301.17,163.36l3.45,7.14c.07.17-.08.4-.35.52s-.54.08-.62-.09l-3.45-7.14,1-.43" transform="translate(-9.68 -9.78)"/><path class="cls-3" d="M300.65,163.59l3.59,7.44c-.25.1-.51.05-.58-.11l-3.45-7.14Z" transform="translate(-9.68 -9.78)"/><ellipse class="cls-3" cx="300.69" cy="163.58" rx="0.53" ry="0.33" transform="translate(-50.12 125.53) rotate(-23.81)"/><path class="cls-6" d="M305.32,163.62l-1.57,4c-.07.17.08.4.35.52s.54.08.62-.09l1.57-4-1-.43" transform="translate(-9.68 -9.78)"/><path class="cls-3" d="M305.84,163.85l-1.71,4.3c.25.1.51.05.58-.11l1.57-4Z" transform="translate(-9.68 -9.78)"/><ellipse class="cls-3" cx="305.8" cy="163.83" rx="0.33" ry="0.53" transform="translate(22.8 367.72) rotate(-66.2)"/><path class="cls-7" d="M296.19,156.26v.08c0,.08,0,.15,0,.23h0a10.27,10.27,0,0,0,.38,2h0a7.17,7.17,0,0,0,.37,1q.11.24.24.48l0,.08h0q0,.12,0,.23v.22s0,.07,0,.11,0,.09,0,.13,0,.08,0,.11,0,.09,0,.14v.11s0,.09,0,.14l0,.11,0,.13,0,.11.06.17,0,.06h0l0,0,.09.19,0,.08.1.16,0,.06.11.16,0,.06.09.11.09.11,0,0,.15.17,0,0,.15.15.1.1,0,0a.9.9,0,0,0,.14.16l0,0,0,0,0,0,0,0,.06,0,.06,0,0,0h0l.07,0,0,0,.11.05h0a4.74,4.74,0,0,0,.49.19h0l.1,0,.18.06h0l.61.16h.05l.13,0h0l.13,0h.06c.2,0,.46.09.76.13l.3,0,.33,0,.51,0,.29,0,.83,0h.07c.31,0,.77,0,1.29-.05h0l.65-.07h.11l.31,0h.05l.15,0h0l.12,0h0l.14,0h.08l.26-.06h.05l.14,0,.18,0,.2-.06.14,0,.19-.06.15,0h.08l.11,0,.08,0,.08,0L309,164l0,0,.16-.08h0l.13-.08,0,0,.13-.09h0l.07-.06h0l.07-.08h0l.07-.09,0,0,.07-.07a5.63,5.63,0,0,0,.7-.82l0-.05.06-.1.08-.15,0-.06.1-.21v0h0a2.69,2.69,0,0,0,.18-.81,5.22,5.22,0,0,0,0-1h0l.13-.24.09-.17.11-.25,0-.08a7.17,7.17,0,0,0,.25-.68l0-.1v0l0-.13.09-.33v0a10.5,10.5,0,0,0,.24-1.5h0l0-.22c0-.07,0-.15,0-.22V156c0-.07,0-.14,0-.22s0-.09,0-.13,0-.15,0-.23,0-.06,0-.08c0-.44,0-.84,0-1.09v-.32c0-.07,0-.14,0-.21l0-.16,0-.08a4.41,4.41,0,0,0-.21-.66l-.09-.21,0,0-.09-.17,0-.07-.05-.1-.07-.11,0-.06-.12-.17h0l-.13-.17,0,0-.06-.07v-.06l0-.15h0l.12-.23.1-.2.11-.23,0-.07.14-.36h0l.12-.34,0-.14.06-.2.07-.28v-.07a10.91,10.91,0,0,0,.25-1.75v-.24c0-.26,0-.48,0-.65,0-.33,0-.63,0-.91h0c0-.18,0-.35-.05-.51v-.08c0-.14-.05-.29-.09-.43l0-.08v0c0-.07-.06-.19-.11-.32l0-.08c0-.09-.08-.19-.13-.3l-.06-.12-.08-.15-.09-.15-.06-.09-.12-.17-.06-.08-.18-.23h0l0,0,0-.12,0-.07q0-.17.07-.33l0-.09q0-.22.06-.42v0c0-.16,0-.31,0-.47v0a4.73,4.73,0,0,0,0-.49v-.18l0-.18v-.07l0-.19v-.19l0-.19v-.32l0-.08h0l0-.12,0-.16h0l0-.07c0-.13-.11-.35-.22-.65l-.06-.17h0l-.26-.69-.15-.38-.19-.5a3.76,3.76,0,0,0-.16-.37l0-.05-.07-.14-.06-.09,0-.07,0,0a3.12,3.12,0,0,0-.31-.39l0,0-.08-.08-.23-.2,0,0-.06,0,0,0-.15-.1-.12-.07-.2-.11,0,0-.22-.1,0,0h0l-.1,0-.52-.18h0l-.13,0-.53-.12c-.26-.05-.52-.09-.77-.12h-.18l-.53,0h0l-.54,0h-.47c-.33,0-.69,0-1,0h0l-.3,0-.2,0h-.1l-.54.07H302l-.23,0h0l-.33.07h0l-.23.05-.16,0-.12,0h0l-.12,0-.06,0-.15.05-.15.05,0,0h0a4.46,4.46,0,0,0-.57.27,3.79,3.79,0,0,0-.4.26h0l-.06,0-.07.06-.1.09-.11.11,0,0,0,0,0,0-.09.1-.06.08,0,.06,0,0,0,.05-.08.12a2.76,2.76,0,0,0-.18.32h0l-.07.16-.07.18,0,.08-.24.64v0l-.17.45-.13.35v0l0,.07,0,.07,0,.08,0,.08v0l0,0v0l0,.09v0l-.1.31h0v.05l0,.07,0,.08,0,.1,0,.2v0c0,.17-.05.33-.07.44l0,.15v0c0,.37-.06.63-.07.87,0,0,0,.05,0,.08s0,.08,0,.12,0,0,0,0h0c0,.08,0,.15,0,.23v.32l0,.2v0l0,.19v0l0,.16,0,.19v0l0,.13v0l0,0h0l-.17.22-.07.09-.15.23,0,0-.12.2,0,.06-.07.14-.07.15,0,0a4.76,4.76,0,0,0-.19.53h0l-.05.21v0a5.35,5.35,0,0,0-.12.91v.11c0,.26,0,.53,0,.82,0,.07,0,.14,0,.22s0,.32,0,.5v.17a11.32,11.32,0,0,0,.26,1.75h0c0,.19.09.37.15.54l0,.07a7.51,7.51,0,0,0,.39,1l0,.08.21.4h0l0,.15v.07l-.08.1-.09.12-.06.08-.09.14,0,.05-.07.12,0,.06,0,.09,0,.09,0,0c-.06.13-.11.24-.14.32a4.3,4.3,0,0,0-.19.58,5,5,0,0,0-.13.84h0c0,.05,0,.12,0,.18v0c0,.18,0,.41,0,.65S296.16,155.89,296.19,156.26Zm3.69,7.91h0Zm6.42.49h0Zm-3.55.07h0Zm-1.5-.19.12,0Zm-1.53-.4h0Z" transform="translate(-9.68 -9.78)"/><path class="cls-9" d="M307,164.56h-.12Z" transform="translate(-9.68 -9.78)"/><path class="cls-9" d="M299.86,164.18h0Z" transform="translate(-9.68 -9.78)"/><path class="cls-9" d="M302.72,164.74h0Z" transform="translate(-9.68 -9.78)"/><path class="cls-9" d="M302.56,164.73h0Z" transform="translate(-9.68 -9.78)"/><path class="cls-10" d="M298.22,155.41a15.94,15.94,0,0,1-1.46-3.14l0,0,0,.09,0,.09,0,0c-.06.13-.11.24-.14.32a4.29,4.29,0,0,0-.19.58,5,5,0,0,0-.13.84h0c0,.05,0,.12,0,.18v0c0,.18,0,.41,0,.65s0,.77,0,1.15v.08c0,.08,0,.15,0,.23h0a10.28,10.28,0,0,0,.38,2h0a7.17,7.17,0,0,0,.37,1q.11.24.24.48l0,.08h0q0,.12,0,.23v.33s0,.09,0,.13,0,.08,0,.11,0,.09,0,.14v.11s0,.09,0,.14l0,.11,0,.13,0,.11.06.17,0,.06h0l0,0,.09.19,0,.08.1.16,0,.06.11.16,0,.06.09.11.09.11,0,0,.15.17,0,0,.15.15.1.1,0,0a.9.9,0,0,0,.14.16l0,0,0,0,0,0,0,0,.06,0,.06,0,0,0h0l.07,0,0,0,.11.05h0a4.75,4.75,0,0,0,.49.19h0l.1,0,.18.06h0l.61.16h.05l.13,0h0l.13,0h.06c.2,0,.46.09.76.13l.3,0,.33,0h.2l.31,0,.29,0,.83,0h.07c.31,0,.77,0,1.29-.05h0l.65-.07h.11l.31,0h.05l.15,0h0l.12,0h0l.14,0h.08l.26-.06h.05l.14,0,.18,0,.2-.06.14,0,.19-.06.15,0h.08l.11,0,.08,0,.08,0L309,164l0,0,.16-.08h0l.13-.08,0,0,.13-.09h0l.07-.06h0l.07-.08h0l.07-.09,0,0,.07-.07h0a24.13,24.13,0,0,1-3.8-1.3A17.32,17.32,0,0,1,298.22,155.41Zm8,9.26h0Zm-5-.12.12,0Zm-1.38-.38h0Z" transform="translate(-9.68 -9.78)"/><path class="cls-6" d="M161.64,243.83v13.43c0,.22-.29.4-.64.4s-.64-.18-.64-.4V243.83h1.28" transform="translate(-9.68 -9.78)"/><path class="cls-3" d="M160.95,243.83v13.83c-.33,0-.59-.19-.59-.4V243.83Z" transform="translate(-9.68 -9.78)"/><ellipse class="cls-3" cx="151.32" cy="234.05" rx="0.64" ry="0.4"/><path class="cls-6" d="M157.35,244.31l4.18,8.64c.09.2-.1.48-.42.63s-.66.09-.75-.11l-4.18-8.64,1.17-.52" transform="translate(-9.68 -9.78)"/><path class="cls-3" d="M156.72,244.59l4.34,9c-.31.12-.62.06-.7-.13l-4.18-8.64Z" transform="translate(-9.68 -9.78)"/><ellipse class="cls-3" cx="156.77" cy="244.57" rx="0.64" ry="0.4" transform="translate(-95.06 74.31) rotate(-23.81)"/><path class="cls-6" d="M162.37,244.62l-1.9,4.83c-.09.2.1.48.42.63s.66.09.75-.11l1.9-4.83-1.17-.52" transform="translate(-9.68 -9.78)"/><path class="cls-3" d="M163,244.9l-2.07,5.2c.31.12.62.06.7-.13l1.9-4.83Z" transform="translate(-9.68 -9.78)"/><ellipse class="cls-3" cx="162.96" cy="244.88" rx="0.4" ry="0.64" transform="translate(-136.54 285.35) rotate(-66.19)"/><path class="cls-7" d="M151.33,235.72v.09c0,.09,0,.19,0,.27h0a12.43,12.43,0,0,0,.46,2.41h0a8.68,8.68,0,0,0,.45,1.18q.13.29.29.58l.05.1h0q0,.14,0,.28v.09c0,.06,0,.12,0,.18s0,.09,0,.13,0,.11,0,.16,0,.09,0,.14,0,.11,0,.17v.13c0,.06,0,.11,0,.17l0,.13,0,.16,0,.14.07.2,0,.08h0l0,0,.11.23,0,.09.12.2,0,.07.14.19.06.08.11.14.11.13,0,.06.19.2.05.06.18.19.12.12,0,0a1.08,1.08,0,0,0,.17.2l0,0,0,0,.06,0,0,0,.07,0,.07,0,0,0h0l0,0,.08,0,.06,0,.13.07h0a5.71,5.71,0,0,0,.59.23h.06l.13,0,.21.07h.05l.74.2.07,0,.16,0h0l.15,0h.07c.24,0,.56.1.92.15l.37,0,.4,0,.61,0,.36,0,1,0h.08c.38,0,.93,0,1.56-.06h.06l.78-.08.13,0,.38-.05H164l.19,0,.11,0h-.1l.15,0h-.05l.09,0,.17,0,.1,0,.31-.07h.06l.17,0,.22-.06.24-.07.17,0,.23-.08.18-.06h.09l.14,0,.1,0,.1,0,.14-.06.05,0,.19-.1h0l.16-.09,0,0,.16-.11h0l0,0,.09-.08h0l.09-.09h0l.08-.11,0,0,.08-.08a6.81,6.81,0,0,0,.84-1l0-.07.08-.12.1-.18,0-.08.12-.25v0h0a3.25,3.25,0,0,0,.21-1,6.32,6.32,0,0,0,0-1.18h0l.15-.28.1-.21.14-.3,0-.09a8.7,8.7,0,0,0,.3-.82l0-.12v0l0-.16q.06-.2.11-.4v0a12.7,12.7,0,0,0,.29-1.81h0c0-.09,0-.18,0-.27s0-.18,0-.27v-.12c0-.09,0-.17,0-.26s0-.11,0-.16,0-.18,0-.27,0-.07,0-.1c0-.53,0-1,0-1.31v-.08l0-.17,0-.13c0-.09,0-.17,0-.26l0-.19,0-.1a5.33,5.33,0,0,0-.25-.8l-.11-.25,0-.06L170,231l0-.09-.07-.12-.08-.13,0-.07-.14-.21h0l-.15-.21,0,0-.07-.08V230l0-.18h0l.15-.27.12-.24.13-.28,0-.09c.06-.13.12-.28.17-.43h0c0-.13.1-.27.14-.42l0-.16.07-.25.09-.34,0-.06v0a13.2,13.2,0,0,0,.3-2.11v-.29c0-.31,0-.58,0-.78,0-.4,0-.76,0-1.1v0h0c0-.21,0-.42-.06-.62v-.09c0-.17-.06-.35-.11-.52l0-.1v0c0-.09-.07-.23-.13-.39l0-.1c0-.11-.09-.23-.16-.36l-.08-.15-.1-.18-.11-.18-.07-.11-.14-.21-.07-.1-.22-.28h0l0-.05,0-.15,0-.09q.05-.21.09-.4l0-.11q0-.26.08-.51v-.05c0-.19,0-.38,0-.56v0a5.75,5.75,0,0,0,0-.6v-.22l0-.22v-.08l0-.23v-.24l0-.23v-.25l0-.08v-.06l0-.1h0l0-.14-.05-.19h0v0l0-.08c-.05-.16-.14-.42-.27-.79l-.08-.21h0l-.32-.83-.18-.45-.23-.61a4.55,4.55,0,0,0-.19-.45l0-.07-.09-.16-.07-.11-.05-.09,0,0a3.76,3.76,0,0,0-.38-.48l0-.05-.1-.1a2.92,2.92,0,0,0-.28-.24l-.05,0-.08-.06-.05,0-.18-.12-.15-.09-.24-.13,0,0-.26-.12-.05,0h0l-.12,0c-.23-.09-.45-.16-.63-.21h0l-.16,0c-.29-.08-.52-.13-.64-.15-.32-.06-.63-.11-.93-.15l-.14,0h-.08l-.64-.06h0l-.65,0h-.57c-.4,0-.83,0-1.26,0h0l-.36,0-.25,0h-.12l-.66.08h-.07l-.28,0h0l-.4.08h0l-.28.06-.2,0-.15,0h0l-.14,0-.07,0-.19.06-.18.07,0,0h0a5.41,5.41,0,0,0-.69.33,4.58,4.58,0,0,0-.49.32h0l-.07.06-.09.07-.12.11-.14.13,0,0,0,0,0,0-.1.12-.07.09-.06.08,0,0,0,.06-.1.15a3.32,3.32,0,0,0-.22.39h0l-.09.19-.09.22,0,.1-.3.78,0,0-.21.54-.16.43v0l0,.08,0,.09,0,.09,0,.1v0l0,.06,0,0,0,.11,0,0-.12.38h0v.06l0,.08,0,.1,0,.12-.05.25v0c0,.21-.07.4-.08.53l0,.18v0c0,.45-.08.76-.08,1,0,0,0,.07,0,.1s0,.09,0,.14,0,0,0,0h0c0,.09,0,.18,0,.28v.38c0,.08,0,.16,0,.24v.05l0,.23v.06l0,.19.05.23v.06l0,.15v0l0,.05h0l-.21.27-.08.11-.19.28,0,0-.14.25,0,.08-.08.17-.08.18,0,.06a5.76,5.76,0,0,0-.23.64h0c0,.09,0,.17-.07.25v0a6.49,6.49,0,0,0-.14,1.1v.14c0,.31,0,.64,0,1,0,.08,0,.17,0,.27s0,.38,0,.61v.21a13.72,13.72,0,0,0,.31,2.12h0c.06.23.11.45.18.65l0,.08a9.1,9.1,0,0,0,.48,1.22l0,.1c.09.19.18.35.26.49h0l0,.18v.08l-.1.12-.11.14-.07.1-.11.16,0,.07-.09.15,0,.07L152,231l-.06.1,0,0c-.08.15-.13.29-.17.39a5.2,5.2,0,0,0-.23.71,6.06,6.06,0,0,0-.16,1h0c0,.06,0,.14,0,.22v0c0,.22,0,.49,0,.79S151.29,235.27,151.33,235.72Zm4.46,9.58h0Zm7.76.59h0Zm-4.3.09h0Zm-1.81-.23.15,0Zm-1.85-.49h0Z" transform="translate(-9.68 -9.78)"/><path class="cls-10" d="M164.35,245.77h-.15Z" transform="translate(-9.68 -9.78)"/><path class="cls-10" d="M155.76,245.3h0Z" transform="translate(-9.68 -9.78)"/><path class="cls-10" d="M159.23,246h0Z" transform="translate(-9.68 -9.78)"/><path class="cls-10" d="M159,246h0Z" transform="translate(-9.68 -9.78)"/><path class="cls-10" d="M153.79,234.69a19.29,19.29,0,0,1-1.76-3.8l0,0-.06.11-.06.1,0,0c-.08.15-.13.29-.17.39a5.2,5.2,0,0,0-.23.71,6.06,6.06,0,0,0-.16,1h0c0,.06,0,.14,0,.22v0c0,.22,0,.49,0,.79s0,.93,0,1.39v.09c0,.09,0,.19,0,.27h0a12.43,12.43,0,0,0,.46,2.41h0a8.68,8.68,0,0,0,.45,1.18q.13.29.29.58l.05.1h0q0,.14,0,.28v.09c0,.06,0,.12,0,.18s0,.09,0,.13,0,.11,0,.16,0,.09,0,.14,0,.11,0,.17v.13c0,.06,0,.11,0,.17l0,.13,0,.16,0,.14.07.2,0,.08h0l0,0,.11.23,0,.09.12.2,0,.07.14.19.06.08.11.14.11.13,0,.06.19.2.05.06.18.19.12.12,0,0a1.08,1.08,0,0,0,.17.2l0,0,0,0,.06,0,0,0,.07,0,.07,0,0,0h0l0,0,.08,0,.06,0,.13.07h0a5.72,5.72,0,0,0,.59.23h.06l.13,0,.21.07h.05l.74.2.07,0,.16,0h0l.15,0h.07c.24,0,.56.1.92.15l.37,0,.4,0h.24l.37,0,.36,0,1,0H161c.38,0,.93,0,1.56-.06h.06l.78-.08.13,0,.38-.05H164l.19,0,.11,0h-.1l.15,0h-.05l.09,0,.17,0,.1,0,.31-.07H165l.17,0,.22-.06.24-.07.17,0,.23-.08.18-.06h.09l.13,0,.1,0,.1,0,.14-.06.05,0,.19-.1h0l.16-.09,0,0,.16-.11h0l0,0,.09-.08h0l.09-.09h0l.08-.11,0,0,.08-.08h0a29.19,29.19,0,0,1-4.6-1.57A21,21,0,0,1,153.79,234.69Zm9.74,11.21h0Zm-6.11-.14.15,0Zm-1.67-.46h0Z" transform="translate(-9.68 -9.78)"/><path class="cls-6" d="M29,169.83v13.43c0,.22-.29.4-.64.4s-.64-.18-.64-.4V169.83H29" transform="translate(-9.68 -9.78)"/><path class="cls-3" d="M28.28,169.83v13.83c-.33,0-.59-.19-.59-.4V169.83Z" transform="translate(-9.68 -9.78)"/><ellipse class="cls-3" cx="18.66" cy="160.05" rx="0.64" ry="0.4"/><path class="cls-6" d="M24.69,170.31,28.87,179c.09.2-.1.48-.42.63s-.66.09-.75-.11l-4.18-8.64,1.17-.52" transform="translate(-9.68 -9.78)"/><path class="cls-3" d="M24.06,170.59l4.34,9c-.31.12-.62.06-.7-.13l-4.18-8.64Z" transform="translate(-9.68 -9.78)"/><ellipse class="cls-3" cx="24.1" cy="170.57" rx="0.64" ry="0.4" transform="translate(-76.48 14.47) rotate(-23.81)"/><path class="cls-6" d="M29.71,170.62l-1.9,4.83c-.09.2.1.48.42.63s.66.09.75-.11l1.9-4.83-1.17-.52" transform="translate(-9.68 -9.78)"/><path class="cls-3" d="M30.34,170.9l-2.07,5.2c.31.12.62.06.7-.13l1.9-4.83Z" transform="translate(-9.68 -9.78)"/><ellipse class="cls-3" cx="30.29" cy="170.88" rx="0.4" ry="0.64" transform="translate(-147.95 119.84) rotate(-66.19)"/><path class="cls-7" d="M18.66,161.72v.09c0,.09,0,.19,0,.27h0a12.44,12.44,0,0,0,.46,2.41h0a8.67,8.67,0,0,0,.45,1.18q.13.29.29.58l.05.1h0q0,.14,0,.28v.09c0,.06,0,.12,0,.18s0,.09,0,.13,0,.11,0,.16,0,.09,0,.14,0,.11,0,.17v.13c0,.06,0,.11,0,.17l0,.13,0,.16,0,.14.07.2,0,.08h0l0,0,.11.23,0,.09.12.2,0,.07.14.19.06.08.11.14.11.13,0,.06.19.2.05.06.18.19.12.12,0,0a1.09,1.09,0,0,0,.17.2l0,0,0,0,.06,0,0,0,.07,0,.07,0,0,0h0l0,0,.08,0,.06,0,.13.07h0a5.73,5.73,0,0,0,.59.23H23l.13,0,.21.07h.05l.74.2.07,0,.16,0h0l.15,0h.07c.24,0,.56.1.92.15l.37,0,.4,0,.61,0,.36,0,1,0h.08c.38,0,.93,0,1.56-.06H30l.78-.08.13,0,.38-.05h.06l.19,0,.11,0h-.1l.15,0h-.05l.09,0,.17,0,.1,0,.31-.07h.06l.17,0,.22-.06.24-.07.17,0,.23-.08.18-.06h.09l.13,0,.1,0,.1,0,.14-.06.05,0,.19-.1h0l.16-.09,0,0,.16-.11h0l0,0,.09-.08h0l.09-.09h0l.08-.11,0,0,.08-.08a6.81,6.81,0,0,0,.84-1l0-.07.08-.12.1-.18,0-.08.12-.25v0h0a3.25,3.25,0,0,0,.21-1,6.31,6.31,0,0,0,0-1.18h0l.15-.28.1-.21.14-.3,0-.09a8.65,8.65,0,0,0,.3-.82l0-.12v0l0-.16q.06-.2.11-.4v0a12.7,12.7,0,0,0,.29-1.81h0c0-.09,0-.18,0-.27s0-.18,0-.27v-.12c0-.09,0-.17,0-.26s0-.11,0-.16,0-.18,0-.27,0-.07,0-.1c0-.53,0-1,0-1.31v-.08l0-.17,0-.13c0-.09,0-.17,0-.26l0-.19,0-.1a5.32,5.32,0,0,0-.25-.8l-.11-.25,0-.06-.1-.21,0-.09-.07-.12-.08-.13,0-.07-.14-.21h0l-.15-.21,0,0-.07-.08V156l0-.18h0l.15-.27.12-.24L37,155l0-.09c.06-.13.12-.28.17-.43h0c0-.13.1-.27.14-.42l0-.16.07-.25.09-.34,0-.06v0a13.19,13.19,0,0,0,.3-2.11v-.29c0-.31,0-.58,0-.78,0-.4,0-.76,0-1.1v0h0c0-.21,0-.42-.06-.62v-.09c0-.17-.06-.35-.11-.52l0-.1v0c0-.09-.07-.23-.13-.39l0-.1c0-.11-.09-.23-.16-.36l-.08-.15-.1-.18-.11-.18-.07-.11-.14-.21-.07-.1-.22-.28h0l0-.05,0-.15,0-.09q.05-.21.09-.4l0-.11q0-.26.08-.51v-.05c0-.19,0-.38,0-.56v0a5.72,5.72,0,0,0,0-.6v-.22l0-.22v-.08l0-.23v-.24l0-.23,0-.09v-.16l0-.08v-.06l0-.1h0l0-.14-.05-.19h0v0l0-.08c0-.16-.14-.42-.27-.79l-.08-.21h0l-.32-.83-.18-.45-.23-.61a4.54,4.54,0,0,0-.19-.45l0-.07-.09-.16-.07-.11-.05-.09,0,0a3.77,3.77,0,0,0-.38-.48l0-.05-.1-.1a2.91,2.91,0,0,0-.28-.24l-.05,0L34,136l-.05,0-.18-.12-.15-.09-.24-.13,0,0-.26-.12-.05,0h0l-.12,0c-.23-.09-.45-.16-.63-.21h0l-.16,0c-.29-.08-.52-.13-.64-.15-.32-.06-.63-.11-.93-.15l-.14,0h-.08l-.64-.06h0l-.65,0H28.4c-.4,0-.83,0-1.26,0h0l-.36,0-.25,0h-.12l-.66.08h-.07l-.28,0h0L25,135h0l-.28.06-.2,0-.15,0h0l-.14,0-.07,0-.19.06-.18.07,0,0h0a5.41,5.41,0,0,0-.69.33,4.58,4.58,0,0,0-.49.32h0l-.07.06-.09.07-.12.11-.14.13,0,0,0,0,0,0-.1.12-.07.09-.06.08,0,0,0,.06-.1.15a3.31,3.31,0,0,0-.22.39h0l-.09.19-.09.22,0,.1-.3.78,0,0-.21.54-.16.43v0l0,.08,0,.09,0,.09,0,.1v0l0,.06,0,0,0,.11,0,0-.12.38h0v.06l0,.08,0,.1,0,.12-.05.25v0c0,.21-.07.4-.08.53l0,.18v0c0,.45-.08.76-.08,1,0,0,0,.07,0,.1s0,.09,0,.14,0,0,0,0h0c0,.09,0,.18,0,.28v.38c0,.08,0,.16,0,.24v.05l0,.23v.06l0,.19.05.23v.06l0,.15v0l0,.05h0l-.21.27-.08.11-.19.28,0,0-.14.25,0,.08-.08.17-.08.18,0,.06a5.77,5.77,0,0,0-.23.64h0c0,.09,0,.17-.07.25v0a6.48,6.48,0,0,0-.14,1.1v.14c0,.31,0,.64,0,1,0,.08,0,.17,0,.27s0,.38,0,.61v.21A13.71,13.71,0,0,0,19,153.3h0c.06.23.12.45.18.65l0,.08a9.09,9.09,0,0,0,.48,1.22l0,.1c.09.19.18.35.26.49h0l0,.18v.08l-.1.12-.11.14-.07.1-.11.16,0,.07-.09.15,0,.07-.06.11-.05.1,0,0c-.08.15-.13.29-.17.39a5.2,5.2,0,0,0-.23.71,6.07,6.07,0,0,0-.16,1h0c0,.06,0,.14,0,.22v0c0,.22,0,.49,0,.79S18.63,161.27,18.66,161.72Zm4.46,9.58h0Zm7.76.59h0Zm-4.3.09h0Zm-1.81-.23.15,0Zm-1.85-.49h0Z" transform="translate(-9.68 -9.78)"/><path class="cls-10" d="M31.69,171.77h-.15Z" transform="translate(-9.68 -9.78)"/><path class="cls-10" d="M23.1,171.3h0Z" transform="translate(-9.68 -9.78)"/><path class="cls-10" d="M26.56,172h0Z" transform="translate(-9.68 -9.78)"/><path class="cls-10" d="M26.37,172h0Z" transform="translate(-9.68 -9.78)"/><path class="cls-10" d="M21.12,160.69a19.3,19.3,0,0,1-1.76-3.8l0,0-.06.11-.05.1,0,0c-.08.15-.13.29-.17.39a5.2,5.2,0,0,0-.23.71,6.07,6.07,0,0,0-.16,1h0c0,.06,0,.14,0,.22v0c0,.22,0,.49,0,.79s0,.93,0,1.39v.09c0,.09,0,.19,0,.27h0a12.44,12.44,0,0,0,.46,2.41h0a8.68,8.68,0,0,0,.45,1.18q.13.29.29.58l.05.1h0q0,.14,0,.28v.09c0,.06,0,.12,0,.18s0,.09,0,.13,0,.11,0,.16,0,.09,0,.14,0,.11,0,.17,0,.09,0,.13,0,.11,0,.17l0,.13,0,.16,0,.14.07.2,0,.08h0l0,0,.11.23,0,.09.12.2,0,.07.14.19.06.08.11.14.11.13,0,.06.19.2.05.06.18.19.12.12,0,0a1.09,1.09,0,0,0,.17.2l0,0,0,0,.06,0,0,0,.07,0,.07,0,0,0h0l0,0,.08,0,.06,0,.13.07h0a5.72,5.72,0,0,0,.59.23H23l.13,0,.21.07h.05l.74.2.07,0,.16,0h0l.15,0h.07c.24,0,.56.1.92.15l.37,0,.4,0h.24l.37,0,.36,0,1,0h.08c.38,0,.93,0,1.56-.06H30l.78-.08.13,0,.38-.05h.06l.19,0,.11,0h-.1l.15,0h-.05l.09,0,.17,0,.1,0,.31-.07h.06l.17,0,.22-.06.24-.07.17,0,.23-.08.18-.06h.09l.13,0,.1,0,.1,0,.14-.06.05,0,.19-.1h0l.16-.09,0,0,.16-.11h0l0,0,.09-.08h0l.09-.09h0l.08-.11,0,0,.08-.08h0a29.19,29.19,0,0,1-4.6-1.57A21,21,0,0,1,21.12,160.69Zm9.74,11.21h0Zm-6.11-.14.15,0Zm-1.67-.46h0Z" transform="translate(-9.68 -9.78)"/><path class="cls-26" d="M276.9,171.36,286,177a2.51,2.51,0,0,1-.16,4.37c-4.92,2.56-12.56,6.87-12.79,8.65-2.33,17.81,23.75,32.13,23.75,32.13l-33,19.56-49.42-34.58Z" transform="translate(-9.68 -9.78)"/><polygon class="cls-26" points="143.44 232.43 123.89 243.68 13.42 180.69 37.25 169.23 143.44 232.43"/><g class="cls-1"><path class="cls-13" d="M174.88,39.49l-.32.06-.16,0-.18,0h-.38l-.35,0h-.08l-.17,0-.17,0-.11,0-.29-.08-.14,0-.18-.07L169.29,38l.32.11.29.08.27.06.17,0,.44,0h0a4.3,4.3,0,0,0,.53,0,4.43,4.43,0,0,0,.51-.09l.06,0,.43-.13.05,0,.43-.18.09,0,.42-.24,0,0,.35-.25.13-.1.25-.22.16-.15.17-.18.26-.29.15-.19.24-.34.13-.2c.08-.13.16-.27.23-.4l.1-.17c.1-.2.19-.4.28-.61l0-.09c.07-.18.14-.37.19-.56l.07-.25c0-.13.07-.26.1-.39s0-.24.07-.36,0-.14,0-.21,0-.38.06-.57c0,0,0,0,0-.07,0-.2,0-.4,0-.6s0-.26,0-.39,0-.08,0-.12,0-.29,0-.43l0-.09c0-.11,0-.22-.06-.33l0-.14-.07-.28,0-.14-.08-.27,0-.14-.1-.26-.06-.14-.09-.19-.1-.21-.07-.12-.16-.29-.07-.11q-.12-.19-.26-.36l-.07-.09a5.29,5.29,0,0,0-.36-.41l-.08-.08c-.12-.11-.24-.22-.37-.32l-.06,0a4.63,4.63,0,0,0-.44-.3l-.11-.06a4.32,4.32,0,0,0-.48-.23h0l3.07,1.26a4.35,4.35,0,0,1,.48.24l.11.06a4.61,4.61,0,0,1,.44.3l.06,0c.13.1.25.21.37.32l.08.08a5.29,5.29,0,0,1,.36.41l0,0,0,.06q.13.18.26.36l0,.07,0,0,.17.29.05.09v0l.1.21.08.17v0l.06.14.09.21v0l0,.14.06.19,0,.08,0,.14,0,.13,0,.14,0,.14,0,.08c0,.08,0,.17,0,.25v.11q0,.19,0,.38v0s0,.08,0,.12,0,.16,0,.24,0,.1,0,.16,0,.17,0,.26,0,.23,0,.34,0,0,0,.07v0q0,.24,0,.47v.07c0,.07,0,.14,0,.21s0,.17,0,.26l0,.1c0,.13-.06.26-.1.39s0,.13,0,.19l0,.06c-.06.19-.12.38-.19.56l0,.09c-.08.21-.18.41-.28.61l-.1.17c-.07.14-.15.27-.23.4l-.13.2-.24.34-.08.11-.08.09-.26.29-.11.12-.07.06-.16.15-.14.13-.11.09-.13.1-.09.07-.26.17,0,0h0l-.3.18-.1.05-.09,0-.1.05-.3.12h0l-.05,0-.22.07-.22.06-.06,0Z" transform="translate(-9.68 -9.78)"/><path class="cls-13" d="M160.95,31.58s0-.1,0-.14,0,0,0-.05q0-.48.09-.95s0-.09,0-.14,0-.28.07-.42.05-.35.09-.52,0-.21.07-.32l0-.18c.07-.29.14-.58.22-.86l.06-.18.06-.2c.11-.35.23-.7.37-1l0-.06c.13-.33.28-.64.43-1l.08-.17q.24-.47.5-.91l.11-.18c.18-.3.37-.59.58-.87l.05-.07.35-.45.15-.17c.17-.2.34-.4.52-.59l.21-.24.13-.12.31-.29.28-.26.22-.17.26-.2.19-.15.51-.34.1-.07,0,0,.61-.35.2-.1.18-.09.21-.1.6-.25.06,0,.11,0,.44-.15.43-.11.12,0,.07,0,.64-.12.32,0,.35,0h.08l.59,0h0c.23,0,.45,0,.67,0H173c.25,0,.51.07.75.12h0l.16,0,.33.08.21.06.3.1.06,0,.36.14,3.07,1.26-.42-.16-.3-.1-.21-.06L177,20.3l-.18,0c-.25-.05-.5-.09-.75-.12l-.16,0c-.22,0-.44,0-.67,0h0l-.59,0-.43,0a8.8,8.8,0,0,0-1,.18l-.12,0q-.44.11-.87.26l-.11,0c-.29.11-.58.23-.87.37l-.18.09c-.28.14-.56.3-.84.47l-.1.07c-.24.15-.47.32-.7.49l-.26.2-.51.44-.31.29-.34.36c-.18.19-.35.38-.52.58s-.34.41-.5.62l-.05.07c-.2.28-.39.57-.58.87l-.11.18q-.26.44-.5.91l-.08.17c-.15.31-.3.63-.43,1l0,.06c-.14.34-.26.68-.37,1l-.06.2q-.16.51-.28,1l0,.18c-.06.28-.11.56-.16.84s0,.28-.07.42c-.05.38-.09.76-.12,1.14,0,0,0,.1,0,.14,0,.4,0,.8,0,1.2,0,.17,0,.33,0,.49s0,.29,0,.43,0,.22,0,.32,0,.27,0,.41,0,.21,0,.31,0,.27.07.4l.06.3c0,.14.06.28.09.41l.06.28c0,.17.09.33.14.49l.05.19q.11.35.23.68t.22.57H165l9.79,23.61-3.07-1.26-9.79-23.61H162q-.11-.27-.21-.54v0q-.12-.34-.23-.68v0l0-.17c0-.16-.09-.33-.14-.49l0-.06,0-.21c0-.14-.06-.27-.09-.41l0-.1c0-.07,0-.14,0-.21s0-.27-.07-.4l0-.12c0-.06,0-.13,0-.19s0-.27,0-.41,0-.1,0-.15,0-.11,0-.17,0-.28,0-.43,0-.12,0-.18,0-.21,0-.31,0-.35,0-.52S160.94,31.81,160.95,31.58Z" transform="translate(-9.68 -9.78)"/><path class="cls-27" d="M174.88,39.49l-.32.06-.16,0-.18,0h-.38l-.35,0h-.08l-.17,0-.17,0-.11,0-.29-.08-.14,0-.18-.07L169.29,38l.32.11.29.08.27.06.17,0,.44,0h0a4.3,4.3,0,0,0,.53,0,4.43,4.43,0,0,0,.51-.09l.06,0,.43-.13.05,0,.43-.18.09,0,.42-.24,0,0,.35-.25.13-.1.25-.22.16-.15.17-.18.26-.29.15-.19.24-.34.13-.2c.08-.13.16-.27.23-.4l.1-.17c.1-.2.19-.4.28-.61l0-.09c.07-.18.14-.37.19-.56l.07-.25c0-.13.07-.26.1-.39s0-.24.07-.36,0-.14,0-.21,0-.38.06-.57c0,0,0,0,0-.07,0-.2,0-.4,0-.6s0-.26,0-.39,0-.08,0-.12,0-.29,0-.43l0-.09c0-.11,0-.22-.06-.33l0-.14-.07-.28,0-.14-.08-.27,0-.14-.1-.26-.06-.14-.09-.19-.1-.21-.07-.12-.16-.29-.07-.11q-.12-.19-.26-.36l-.07-.09a5.29,5.29,0,0,0-.36-.41l-.08-.08c-.12-.11-.24-.22-.37-.32l-.06,0a4.63,4.63,0,0,0-.44-.3l-.11-.06a4.32,4.32,0,0,0-.48-.23h0l3.07,1.26a4.35,4.35,0,0,1,.48.24l.11.06a4.61,4.61,0,0,1,.44.3l.06,0c.13.1.25.21.37.32l.08.08a5.29,5.29,0,0,1,.36.41l0,0,0,.06q.13.18.26.36l0,.07,0,0,.17.29.05.09v0l.1.21.08.17v0l.06.14.09.21v0l0,.14.06.19,0,.08,0,.14,0,.13,0,.14,0,.14,0,.08c0,.08,0,.17,0,.25v.11q0,.19,0,.38v0s0,.08,0,.12,0,.16,0,.24,0,.1,0,.16,0,.17,0,.26,0,.23,0,.34,0,0,0,.07v0q0,.24,0,.47v.07c0,.07,0,.14,0,.21s0,.17,0,.26l0,.1c0,.13-.06.26-.1.39s0,.13,0,.19l0,.06c-.06.19-.12.38-.19.56l0,.09c-.08.21-.18.41-.28.61l-.1.17c-.07.14-.15.27-.23.4l-.13.2-.24.34-.08.11-.08.09-.26.29-.11.12-.07.06-.16.15-.14.13-.11.09-.13.1-.09.07-.26.17,0,0h0l-.3.18-.1.05-.09,0-.1.05-.3.12h0l-.05,0-.22.07-.22.06-.06,0Z" transform="translate(-9.68 -9.78)"/><path class="cls-27" d="M160.95,31.58s0-.1,0-.14,0,0,0-.05q0-.48.09-.95s0-.09,0-.14,0-.28.07-.42.05-.35.09-.52,0-.21.07-.32l0-.18c.07-.29.14-.58.22-.86l.06-.18.06-.2c.11-.35.23-.7.37-1l0-.06c.13-.33.28-.64.43-1l.08-.17q.24-.47.5-.91l.11-.18c.18-.3.37-.59.58-.87l.05-.07.35-.45.15-.17c.17-.2.34-.4.52-.59l.21-.24.13-.12.31-.29.28-.26.22-.17.26-.2.19-.15.51-.34.1-.07,0,0,.61-.35.2-.1.18-.09.21-.1.6-.25.06,0,.11,0,.44-.15.43-.11.12,0,.07,0,.64-.12.32,0,.35,0h.08l.59,0h0c.23,0,.45,0,.67,0H173c.25,0,.51.07.75.12h0l.16,0,.33.08.21.06.3.1.06,0,.36.14,3.07,1.26-.42-.16-.3-.1-.21-.06L177,20.3l-.18,0c-.25-.05-.5-.09-.75-.12l-.16,0c-.22,0-.44,0-.67,0h0l-.59,0-.43,0a8.8,8.8,0,0,0-1,.18l-.12,0q-.44.11-.87.26l-.11,0c-.29.11-.58.23-.87.37l-.18.09c-.28.14-.56.3-.84.47l-.1.07c-.24.15-.47.32-.7.49l-.26.2-.51.44-.31.29-.34.36c-.18.19-.35.38-.52.58s-.34.41-.5.62l-.05.07c-.2.28-.39.57-.58.87l-.11.18q-.26.44-.5.91l-.08.17c-.15.31-.3.63-.43,1l0,.06c-.14.34-.26.68-.37,1l-.06.2q-.16.51-.28,1l0,.18c-.06.28-.11.56-.16.84s0,.28-.07.42c-.05.38-.09.76-.12,1.14,0,0,0,.1,0,.14,0,.4,0,.8,0,1.2,0,.17,0,.33,0,.49s0,.29,0,.43,0,.22,0,.32,0,.27,0,.41,0,.21,0,.31,0,.27.07.4l.06.3c0,.14.06.28.09.41l.06.28c0,.17.09.33.14.49l.05.19q.11.35.23.68t.22.57H165l9.79,23.61-3.07-1.26-9.79-23.61H162q-.11-.27-.21-.54v0q-.12-.34-.23-.68v0l0-.17c0-.16-.09-.33-.14-.49l0-.06,0-.21c0-.14-.06-.27-.09-.41l0-.1c0-.07,0-.14,0-.21s0-.27-.07-.4l0-.12c0-.06,0-.13,0-.19s0-.27,0-.41,0-.1,0-.15,0-.11,0-.17,0-.28,0-.43,0-.12,0-.18,0-.21,0-.31,0-.35,0-.52S160.94,31.81,160.95,31.58Z" transform="translate(-9.68 -9.78)"/><path class="cls-13" d="M174.13,20.13c5.74-.62,10.51,4.6,10.65,11.66a16.12,16.12,0,0,1-1.35,6.8l-8.68,24.36L165,39.33h.11A14.56,14.56,0,0,1,164,34C163.85,27,168.39,20.75,174.13,20.13Zm.27,19.44c2.87-.31,5.14-3.42,5.07-7s-2.46-6.15-5.33-5.83-5.14,3.42-5.07,7,2.45,6.14,5.32,5.83" transform="translate(-9.68 -9.78)"/></g><ellipse class="cls-28" cx="36.24" cy="224.61" rx="11.38" ry="13.34"/><path class="cls-29" d="M52.48,239l-.27,1.4a1.91,1.91,0,0,0,.15.41l.22-.21.1-.09a4,4,0,0,1,.48-.33l.13-.07.44-.21.21-.08.43-.14.24-.06.49-.1.23,0a7,7,0,0,1,.75-.06c2,0,3.72.77,4.28,1.91A2.18,2.18,0,0,0,61,240.2a1.77,1.77,0,0,0,0-.34c0-1.53-2-2.73-4.48-2.68a7,7,0,0,0-.75.06l-.23,0-.16,0-.33.07-.24.06-.43.14-.21.08-.31.15-.13.06-.1.05,0,0a4,4,0,0,0-.46.32l-.1.09a3.06,3.06,0,0,0-.29.29l-.11.14Z" transform="translate(-9.68 -9.78)"/><path class="cls-29" d="M52.43,239.06a2.09,2.09,0,0,0-.11.22,1.92,1.92,0,0,0-.09.25l-.07.35c0,.05,0,.1,0,.15a1.77,1.77,0,0,0,0,.36l.27-1.4Z" transform="translate(-9.68 -9.78)"/><path class="cls-30" d="M52.24,239.52s0,.06,0,.09a1.79,1.79,0,0,0,0,.26Z" transform="translate(-9.68 -9.78)"/><path class="cls-5" d="M43.21,243.14c0,.21,0,.42,0,.64.14,6.15,9,11,19.74,10.76a33.07,33.07,0,0,0,6.23-.71l9.62,4.36,1.43,5.28,4.65-2.68L101.31,271l20.49,3.76L120.44,267,81.7,246.14l.33-1.76,0,.08a6.42,6.42,0,0,0,.13-1.43c-.14-6.15-9-11-19.74-10.76-10,.19-18.15,4.66-19.12,10.24,0,.14,0,.29-.06.43S43.21,243.07,43.21,243.14Zm9.15-4,0,0a2.38,2.38,0,0,1,.28-.43h0l.05,0a3.06,3.06,0,0,1,.29-.29l0,0,0,0h0a4,4,0,0,1,.46-.32l0,0,0,0,.2-.1.31-.15h0l.1,0,.09,0,.43-.14.09,0,.1,0,.38-.08.16,0,.14,0h.07a7,7,0,0,1,.77-.06c2.44,0,4.44,1.15,4.48,2.68a1.77,1.77,0,0,1,0,.34,2.18,2.18,0,0,1-.59,1.12,5.32,5.32,0,0,1-3.73,1.4c-2,0-3.71-.77-4.28-1.9h0a1.91,1.91,0,0,1-.15-.41,1.77,1.77,0,0,1,0-.36c0-.05,0-.1,0-.15a1.79,1.79,0,0,1,0-.26A1.93,1.93,0,0,1,52.36,239.17Z" transform="translate(-9.68 -9.78)"/><path class="cls-29" d="M101.31,271,84.85,260.79l-4.65,2.68-1.43-5.28-9.62-4.36a33.07,33.07,0,0,1-6.23.71c-10.76.21-19.6-4.61-19.74-10.76,0-.21,0-.43,0-.64s0-.13,0-.2,0-.29.06-.43,0-.06,0-.1l-.42,2.23a6.51,6.51,0,0,0-.11,1.37c.14,6.15,9,11,19.74,10.76,1.09,0,2.16-.09,3.2-.21s2.05-.29,3-.49l9.62,4.36,1.43,5.28L84.43,263l16.45,10.18L121.38,277l.42-2.23Z" transform="translate(-9.68 -9.78)"/><polygon class="cls-29" points="69.61 246.88 61.47 242.76 65.1 240.6 94.68 258.12 100.03 261.06 92.33 259.54 69.61 246.88"/><polygon class="cls-29" points="74.13 243.84 65.98 239.72 69.61 237.56 99.19 255.08 112.05 264.22 96.84 256.5 74.13 243.84"/><ellipse class="cls-29" cx="57.99" cy="235.9" rx="4.25" ry="2.52"/><path class="cls-28" d="M41.06,246.46c-3.86-2.14-6.52-6.74-6.52-12.07,0-7.37,5.1-13.34,11.38-13.34s11.38,6,11.38,13.34a15,15,0,0,1-1.65,6.93" transform="translate(-9.68 -9.78)"/><path class="cls-6" d="M198.49,249.21v36.16c0,.81-1,1.47-2.34,1.47s-2.34-.66-2.34-1.47V249.21h4.68" transform="translate(-9.68 -9.78)"/><path class="cls-3" d="M196,249.21v37.62c-1.2-.06-2.15-.69-2.15-1.46V249.21Z" transform="translate(-9.68 -9.78)"/><ellipse class="cls-31" cx="186.47" cy="239.43" rx="2.34" ry="1.47"/><polygon class="cls-31" points="184.53 250.24 184.53 231.57 225.31 208.31 225.31 226.93 184.53 250.24"/><polygon class="cls-31" points="184.53 231.57 179.44 228.47 179.44 247.2 184.53 250.24 184.53 231.57"/><polygon class="cls-31" points="179.44 228.47 220.33 205.15 225.31 208.31 184.53 231.57 179.44 228.47"/><polygon class="cls-3" points="184.53 231.57 179.44 228.47 179.44 247.2 184.53 250.24 184.53 231.57"/><polygon class="cls-32" points="222.7 225.24 222.7 211.82 186.71 232.56 186.71 245.89 222.7 225.24"/><path class="cls-24" d="M199.3,244.94l2.77-1.63v.47L200,245v1.43l1.95-1.14v.46L200,246.91v1.94l-.67.39Z" transform="translate(-9.68 -9.78)"/><path class="cls-24" d="M207.4,242.29A4.61,4.61,0,0,1,205,246c-1.36.8-2.31.48-2.3-.82a4.68,4.68,0,0,1,2.4-3.66C206.51,240.65,207.41,241,207.4,242.29Zm-4,2.41c0,.92.58,1.39,1.63.78a3.38,3.38,0,0,0,1.66-2.75c0-.85-.52-1.43-1.63-.78A3.36,3.36,0,0,0,203.41,244.7Z" transform="translate(-9.68 -9.78)"/><path class="cls-24" d="M208.28,239.73a14,14,0,0,1,1.28-.84,2.55,2.55,0,0,1,1.49-.52c.26,0,.4.25.4.58a2.5,2.5,0,0,1-1,1.67v0a.54.54,0,0,1,.75.42,3.28,3.28,0,0,0,.39.95l-.69.4a2.7,2.7,0,0,1-.34-.82c-.15-.5-.42-.56-1-.23l-.63.37v1.86l-.66.39Zm.65,1.57.68-.4a2.07,2.07,0,0,0,1.17-1.5c0-.55-.48-.51-1.18-.11a5.53,5.53,0,0,0-.66.44Z" transform="translate(-9.68 -9.78)"/><path class="cls-24" d="M213.89,240a2.92,2.92,0,0,0,1.19-.42,1.89,1.89,0,0,0,1.08-1.37c0-.4-.27-.47-1-.29s-1.36.19-1.35-.42a3,3,0,0,1,1.67-2.14,3.15,3.15,0,0,1,1.14-.46l-.19.56a2.64,2.64,0,0,0-1,.37,1.7,1.7,0,0,0-1,1.21c0,.4.31.42,1,.23.87-.23,1.31-.14,1.3.49a3.15,3.15,0,0,1-1.81,2.29,3.47,3.47,0,0,1-1.31.5Z" transform="translate(-9.68 -9.78)"/><path class="cls-24" d="M218.58,236.57l-.54,1.67-.69.4,1.78-5.32.8-.47,1.73,3.27-.71.42-.54-1Zm1.69-1.42-.5-.94a4.89,4.89,0,0,1-.26-.63h0c-.08.3-.16.61-.27.93l-.51,1.54Z" transform="translate(-9.68 -9.78)"/><path class="cls-24" d="M222.44,231.37l.67-.39,0,3.83,2.2-1.29V234l-2.86,1.68Z" transform="translate(-9.68 -9.78)"/><path class="cls-24" d="M228.69,230l-2,1.17v1.55l2.23-1.31v.47l-2.89,1.7,0-4.3,2.78-1.63v.47l-2.11,1.24v1.36l2-1.17Z" transform="translate(-9.68 -9.78)"/></g></g></svg>